<svg width="26" height="20" viewBox="0 0 26 20" fill="none" xmlns="http://www.w3.org/2000/svg">
<path d="M18.4476 1.51687C11.9926 0.317575 1.90443 0.317574 1.97498 12.0283H5.64341C4.83212 7.19588 6.91325 2.18706 18.4476 2.46925V1.51687Z" fill="white"/>
<path d="M7.1958 18.4831C13.6156 19.6824 23.739 19.6824 23.6685 7.97168H20C20.8113 12.8041 18.7302 17.813 7.1958 17.5308V18.4831Z" fill="#939598"/>
<path d="M12.8395 14.1094C10.5467 14.1094 8.67725 12.2752 8.67725 9.98245C8.67725 7.72496 10.5467 5.85547 12.8395 5.85547C15.1323 5.85547 17.0018 7.68968 17.0018 9.98245C16.9665 12.2752 15.1323 14.1094 12.8395 14.1094Z" fill="#ED1C24"/>
</svg>
