<svg width="118" height="20" viewBox="0 0 118 20" fill="none" xmlns="http://www.w3.org/2000/svg">
<path d="M49.2026 16.5324H64.764V13.1477H53.4954V10.9187H63.9384V8.02935H53.4954V5.80041H64.5163V2.53955H49.2026V16.5324ZM69.098 19.9171C69.4695 19.9171 69.9236 19.9996 70.6253 19.9996C72.4827 19.9996 73.6385 19.5868 74.2163 18.3898L79.7474 6.70851H75.7436L72.8955 13.5605L70.0474 6.70851H66.0436L70.584 16.1609H71.9049C71.9049 17.3166 70.9555 17.6056 69.4695 17.6056H69.1393V19.9171H69.098ZM80.573 11.9919C80.573 16.2022 83.1734 16.6562 85.6087 16.6562H88.3743C91.0573 16.6562 93.2862 16.1196 93.2862 13.643V13.2302H89.819C89.819 13.8081 89.7364 14.3447 87.7139 14.3447H86.5581C85.0309 14.3447 84.2879 14.0558 84.2879 13.0238V12.446H93.2862V10.7949C93.2862 7.36893 91.6764 6.5434 87.7139 6.5434H85.1134C82.3892 6.5434 80.5317 7.36894 80.5317 11.0838V11.9919H80.573ZM84.2879 10.217C84.2879 9.02 84.5768 8.81362 87.0121 8.81362C89.1585 8.81362 89.7364 9.02 89.7364 10.217H84.2879Z" fill="white"/>
<path d="M0 16.5324H4.29278V6.33702H4.33406L12.383 16.5324H19.0286V2.53955H14.7358V12.7349H14.6945L6.64556 2.53955H0V16.5324ZM21.2988 11.9919C21.2988 16.2022 23.8992 16.6562 26.3346 16.6562H29.1001C31.7831 16.6562 34.0121 16.1196 34.0121 13.643V13.2302H30.5448C30.5448 13.8081 30.4622 14.3447 28.4397 14.3447H27.2839C25.7567 14.3447 25.0137 14.0558 25.0137 13.0238V12.446H34.0121V10.7949C34.0121 7.36893 32.4023 6.5434 28.4397 6.5434H25.8393C23.115 6.5434 21.2575 7.36894 21.2575 11.0838V11.9919H21.2988ZM25.0137 10.217C25.0137 9.02 25.3027 8.81362 27.738 8.81362C29.8844 8.81362 30.4623 9.02 30.4623 10.217H25.0137ZM37.0253 13.2302C37.0253 15.9545 39.0065 16.6562 41.2768 16.6562H42.7627C45.7347 16.6562 46.9729 15.2115 46.9729 13.3541V12.157H43.7121V12.8175C43.7121 13.7256 43.3819 14.0145 42.1849 14.0145C41.2768 14.0145 40.7402 13.8494 40.7402 13.1064V9.30894H46.5189V6.66723H40.7402V4.35573H37.0253V6.66723H35.1678V9.35022H37.0253V13.2302Z" fill="#E30613"/>
<path d="M112.231 0.475249C106.329 -0.639224 97.0415 -0.639221 97.1241 10.2166H100.468C99.7245 5.7174 101.623 1.0944 112.231 1.34206V0.475249Z" fill="white"/>
<path d="M101.912 16.2428C107.814 17.3573 117.102 17.3573 117.019 6.50146H113.676C114.419 11.0006 112.52 15.6236 101.912 15.376V16.2428Z" fill="#9D9D9C"/>
<path d="M107.072 12.1569C104.967 12.1569 103.274 10.4646 103.274 8.35948C103.274 6.25436 104.967 4.56201 107.072 4.56201C109.177 4.56201 110.869 6.25436 110.869 8.35948C110.869 10.4646 109.177 12.1569 107.072 12.1569Z" fill="#E30613"/>
</svg>
