<svg width="480" height="464" viewBox="0 0 480 464" fill="none" xmlns="http://www.w3.org/2000/svg">
    <path d="M702.024 1205.96L661.823 1081.92L621.707 957.962L581.592 833.921L541.476 709.881L501.361 585.841L461.245 461.801L421.13 337.846L414.43 324.188L70.5699 1.71777L-16.4473 450.462L-19.282 466.783L-15.7601 481.386L24.3555 605.426L64.471 729.466L104.587 853.507L144.702 977.547L184.903 1101.59L225.019 1225.54L265.135 1349.58L274.841 1362.04L613.117 1678.58L702.282 1221.5L702.024 1205.96Z" fill="#4D2222" fill-opacity="0.6"/>
    <path d="M70.5699 1.71777L414.43 324.188" stroke="#FF4D4D" stroke-width="0.4" stroke-linecap="round" stroke-linejoin="round"/>
    <path d="M70.5699 1.71777L-16.4473 450.462" stroke="#FF4D4D" stroke-width="0.4" stroke-linecap="round" stroke-linejoin="round"/>
    <path d="M70.5699 1.71777L401.716 312.935" stroke="#FF4D4D" stroke-width="0.4" stroke-linecap="round" stroke-linejoin="round"/>
    <path d="M70.57 1.71777L-7.25586 432.766" stroke="#FF4D4D" stroke-width="0.4" stroke-linecap="round" stroke-linejoin="round"/>
    <path d="M70.5699 1.71777L383.162 304.431" stroke="#FF4D4D" stroke-width="0.4" stroke-linecap="round" stroke-linejoin="round"/>
    <path d="M70.5699 1.71777L7.86255 414.384" stroke="#FF4D4D" stroke-width="0.4" stroke-linecap="round" stroke-linejoin="round"/>
    <path d="M70.5699 1.71777L359.367 298.762" stroke="#FF4D4D" stroke-width="0.4" stroke-linecap="round" stroke-linejoin="round"/>
    <path d="M28.5646 395.743L70.5699 1.71777" stroke="#FF4D4D" stroke-width="0.4" stroke-linecap="round" stroke-linejoin="round"/>
    <path d="M70.5699 1.71777L331.106 296.27" stroke="#FF4D4D" stroke-width="0.4" stroke-linecap="round" stroke-linejoin="round"/>
    <path d="M70.57 1.71777L54.163 377.36" stroke="#FF4D4D" stroke-width="0.4" stroke-linecap="round" stroke-linejoin="round"/>
    <path d="M70.5699 1.71777L299.065 296.872" stroke="#FF4D4D" stroke-width="0.4" stroke-linecap="round" stroke-linejoin="round"/>
    <path d="M70.5699 1.71777L84.0563 359.837" stroke="#FF4D4D" stroke-width="0.4" stroke-linecap="round" stroke-linejoin="round"/>
    <path d="M70.5699 1.71777L264.19 300.651" stroke="#FF4D4D" stroke-width="0.4" stroke-linecap="round" stroke-linejoin="round"/>
    <path d="M70.5699 1.71777L117.386 343.602" stroke="#FF4D4D" stroke-width="0.4" stroke-linecap="round" stroke-linejoin="round"/>
    <path d="M70.5699 1.71777L227.596 307.352" stroke="#FF4D4D" stroke-width="0.4" stroke-linecap="round" stroke-linejoin="round"/>
    <path d="M70.5699 1.71777L153.034 329.256" stroke="#FF4D4D" stroke-width="0.4" stroke-linecap="round" stroke-linejoin="round"/>
    <path d="M70.5699 1.71777L190.143 317.058" stroke="#FF4D4D" stroke-width="0.4" stroke-linecap="round" stroke-linejoin="round"/>
    <path d="M-16.4473 450.462L23.6683 574.416" stroke="#FF4D4D" stroke-width="0.4" stroke-linecap="round" stroke-linejoin="round"/>
    <path d="M414.43 324.188L454.545 448.228" stroke="#FF4D4D" stroke-width="0.4" stroke-linecap="round" stroke-linejoin="round"/>
    <path d="M264.19 300.651L304.305 424.606" stroke="#FF4D4D" stroke-width="0.4" stroke-linecap="round" stroke-linejoin="round"/>
    <path d="M359.367 298.762L399.483 422.802" stroke="#FF4D4D" stroke-width="0.4" stroke-linecap="round" stroke-linejoin="round"/>
    <path d="M267.711 431.392L307.827 555.432" stroke="#FF4D4D" stroke-width="0.4" stroke-linecap="round" stroke-linejoin="round"/>
    <path d="M371.222 420.225L411.337 544.265" stroke="#FF4D4D" stroke-width="0.4" stroke-linecap="round" stroke-linejoin="round"/>
    <path d="M383.162 304.431L423.277 428.471" stroke="#FF4D4D" stroke-width="0.4" stroke-linecap="round" stroke-linejoin="round"/>
    <path d="M441.832 436.976L481.947 561.016" stroke="#FF4D4D" stroke-width="0.4" stroke-linecap="round" stroke-linejoin="round"/>
    <path d="M68.6801 519.698L28.5646 395.743" stroke="#FF4D4D" stroke-width="0.4" stroke-linecap="round" stroke-linejoin="round"/>
    <path d="M299.065 296.872L339.181 420.912" stroke="#FF4D4D" stroke-width="0.4" stroke-linecap="round" stroke-linejoin="round"/>
    <path d="M117.386 343.602L157.501 467.642" stroke="#FF4D4D" stroke-width="0.4" stroke-linecap="round" stroke-linejoin="round"/>
    <path d="M190.143 317.059L230.259 441.013" stroke="#FF4D4D" stroke-width="0.4" stroke-linecap="round" stroke-linejoin="round"/>
    <path d="M401.716 312.935L441.832 436.975" stroke="#FF4D4D" stroke-width="0.4" stroke-linecap="round" stroke-linejoin="round"/>
    <path d="M193.236 453.21L233.351 577.251" stroke="#FF4D4D" stroke-width="0.4" stroke-linecap="round" stroke-linejoin="round"/>
    <path d="M421.13 337.846L461.245 461.801" stroke="#FF4D4D" stroke-width="0.4" stroke-linecap="round" stroke-linejoin="round"/>
    <path d="M399.483 422.802L439.684 546.842" stroke="#FF4D4D" stroke-width="0.4" stroke-linecap="round" stroke-linejoin="round"/>
    <path d="M304.305 424.606L344.507 548.646" stroke="#FF4D4D" stroke-width="0.4" stroke-linecap="round" stroke-linejoin="round"/>
    <path d="M227.596 307.352L267.711 431.392" stroke="#FF4D4D" stroke-width="0.4" stroke-linecap="round" stroke-linejoin="round"/>
    <path d="M153.034 329.256L193.236 453.211" stroke="#FF4D4D" stroke-width="0.4" stroke-linecap="round" stroke-linejoin="round"/>
    <path d="M7.86255 414.384L47.9781 538.424" stroke="#FF4D4D" stroke-width="0.4" stroke-linecap="round" stroke-linejoin="round"/>
    <path d="M454.545 448.229L494.746 572.269" stroke="#FF4D4D" stroke-width="0.4" stroke-linecap="round" stroke-linejoin="round"/>
    <path d="M423.277 428.471L463.393 552.511" stroke="#FF4D4D" stroke-width="0.4" stroke-linecap="round" stroke-linejoin="round"/>
    <path d="M331.106 296.271L371.222 420.225" stroke="#FF4D4D" stroke-width="0.4" stroke-linecap="round" stroke-linejoin="round"/>
    <path d="M339.181 420.912L379.296 544.866" stroke="#FF4D4D" stroke-width="0.4" stroke-linecap="round" stroke-linejoin="round"/>
    <path d="M230.259 441.013L270.374 565.053" stroke="#FF4D4D" stroke-width="0.4" stroke-linecap="round" stroke-linejoin="round"/>
    <path d="M54.163 377.36L94.3644 501.401" stroke="#FF4D4D" stroke-width="0.4" stroke-linecap="round" stroke-linejoin="round"/>
    <path d="M461.245 461.801L501.361 585.841" stroke="#FF4D4D" stroke-width="0.4" stroke-linecap="round" stroke-linejoin="round"/>
    <path d="M84.0563 359.837L124.258 483.877" stroke="#FF4D4D" stroke-width="0.4" stroke-linecap="round" stroke-linejoin="round"/>
    <path d="M-7.25586 432.766L32.8597 556.806" stroke="#FF4D4D" stroke-width="0.4" stroke-linecap="round" stroke-linejoin="round"/>
    <path d="M153.034 329.256L190.143 317.059" stroke="#FF4D4D" stroke-width="0.4" stroke-linecap="round" stroke-linejoin="round"/>
    <path d="M193.236 453.211L230.259 441.013" stroke="#FF4D4D" stroke-width="0.4" stroke-linecap="round" stroke-linejoin="round"/>
    <path d="M230.259 441.013L267.712 431.392" stroke="#FF4D4D" stroke-width="0.4" stroke-linecap="round" stroke-linejoin="round"/>
    <path d="M190.143 317.058L227.596 307.352" stroke="#FF4D4D" stroke-width="0.4" stroke-linecap="round" stroke-linejoin="round"/>
    <path d="M157.501 467.642L193.236 453.21" stroke="#FF4D4D" stroke-width="0.4" stroke-linecap="round" stroke-linejoin="round"/>
    <path d="M117.386 343.602L153.034 329.256" stroke="#FF4D4D" stroke-width="0.4" stroke-linecap="round" stroke-linejoin="round"/>
    <path d="M227.596 307.352L264.19 300.651" stroke="#FF4D4D" stroke-width="0.4" stroke-linecap="round" stroke-linejoin="round"/>
    <path d="M267.711 431.392L304.305 424.606" stroke="#FF4D4D" stroke-width="0.4" stroke-linecap="round" stroke-linejoin="round"/>
    <path d="M84.0563 359.837L117.386 343.602" stroke="#FF4D4D" stroke-width="0.4" stroke-linecap="round" stroke-linejoin="round"/>
    <path d="M304.305 424.606L339.181 420.912" stroke="#FF4D4D" stroke-width="0.4" stroke-linecap="round" stroke-linejoin="round"/>
    <path d="M264.19 300.651L299.065 296.872" stroke="#FF4D4D" stroke-width="0.4" stroke-linecap="round" stroke-linejoin="round"/>
    <path d="M54.163 377.361L84.0563 359.837" stroke="#FF4D4D" stroke-width="0.4" stroke-linecap="round" stroke-linejoin="round"/>
    <path d="M299.065 296.872L331.106 296.271" stroke="#FF4D4D" stroke-width="0.4" stroke-linecap="round" stroke-linejoin="round"/>
    <path d="M339.181 420.912L371.222 420.225" stroke="#FF4D4D" stroke-width="0.4" stroke-linecap="round" stroke-linejoin="round"/>
    <path d="M28.5646 395.743L54.1629 377.36" stroke="#FF4D4D" stroke-width="0.4" stroke-linecap="round" stroke-linejoin="round"/>
    <path d="M371.222 420.225L399.483 422.802" stroke="#FF4D4D" stroke-width="0.4" stroke-linecap="round" stroke-linejoin="round"/>
    <path d="M331.106 296.271L359.367 298.762" stroke="#FF4D4D" stroke-width="0.4" stroke-linecap="round" stroke-linejoin="round"/>
    <path d="M7.86255 414.384L28.5646 395.743" stroke="#FF4D4D" stroke-width="0.4" stroke-linecap="round" stroke-linejoin="round"/>
    <path d="M359.367 298.762L383.162 304.431" stroke="#FF4D4D" stroke-width="0.4" stroke-linecap="round" stroke-linejoin="round"/>
    <path d="M399.483 422.802L423.277 428.471" stroke="#FF4D4D" stroke-width="0.4" stroke-linecap="round" stroke-linejoin="round"/>
    <path d="M-7.25586 432.766L7.86262 414.384" stroke="#FF4D4D" stroke-width="0.4" stroke-linecap="round" stroke-linejoin="round"/>
    <path d="M423.277 428.471L441.832 436.975" stroke="#FF4D4D" stroke-width="0.4" stroke-linecap="round" stroke-linejoin="round"/>
    <path d="M383.162 304.431L401.716 312.935" stroke="#FF4D4D" stroke-width="0.4" stroke-linecap="round" stroke-linejoin="round"/>
    <path d="M441.832 436.976L454.545 448.229" stroke="#FF4D4D" stroke-width="0.4" stroke-linecap="round" stroke-linejoin="round"/>
    <path d="M401.716 312.935L414.429 324.188" stroke="#FF4D4D" stroke-width="0.4" stroke-linecap="round" stroke-linejoin="round"/>
    <path d="M414.43 324.188L421.13 337.846" stroke="#FF4D4D" stroke-width="0.4" stroke-linecap="round" stroke-linejoin="round"/>
    <path d="M454.545 448.229L461.245 461.801" stroke="#FF4D4D" stroke-width="0.4" stroke-linecap="round" stroke-linejoin="round"/>
</svg>
