<svg width="243" height="285" viewBox="0 0 243 285" fill="none" xmlns="http://www.w3.org/2000/svg">
    <g clip-path="url(#clip0_4196_6457)">
        <path d="M242.232 100.075L226.595 51.8281L210.991 3.61411L195.387 -44.6332L179.784 -92.8806L164.18 -141.128L148.577 -189.375L132.973 -237.589L130.367 -242.902L-3.38243 -368.332L-37.2291 -193.786L-38.3317 -187.438L-36.9618 -181.757L-21.3583 -133.51L-5.75471 -85.2626L9.84884 -37.0153L25.4524 11.2321L41.0894 59.4795L56.6929 107.693L72.2965 155.941L76.0721 160.786L207.65 283.91L242.332 106.123L242.232 100.075Z" fill="#4D2222" fill-opacity="0.6"/>
        <path d="M194.753 84.1377L207.65 283.91" stroke="#FF4D4D" stroke-width="0.4" stroke-linecap="round" stroke-linejoin="round"/>
        <path d="M99.5275 115.479L207.65 283.91" stroke="#FF4D4D" stroke-width="0.4" stroke-linecap="round" stroke-linejoin="round"/>
        <path d="M111.155 108.663L207.65 283.91" stroke="#FF4D4D" stroke-width="0.4" stroke-linecap="round" stroke-linejoin="round"/>
        <path d="M181.187 85.6079L207.65 283.91" stroke="#FF4D4D" stroke-width="0.4" stroke-linecap="round" stroke-linejoin="round"/>
        <path d="M207.215 83.9038L207.65 283.91" stroke="#FF4D4D" stroke-width="0.4" stroke-linecap="round" stroke-linejoin="round"/>
        <path d="M207.65 283.91L89.5372 122.595" stroke="#FF4D4D" stroke-width="0.4" stroke-linecap="round" stroke-linejoin="round"/>
        <path d="M124.086 102.348L207.65 283.91" stroke="#FF4D4D" stroke-width="0.4" stroke-linecap="round" stroke-linejoin="round"/>
        <path d="M166.954 88.2476L207.65 283.91" stroke="#FF4D4D" stroke-width="0.4" stroke-linecap="round" stroke-linejoin="round"/>
        <path d="M137.985 96.7344L207.65 283.91" stroke="#FF4D4D" stroke-width="0.4" stroke-linecap="round" stroke-linejoin="round"/>
        <path d="M152.386 91.9897L207.65 283.91" stroke="#FF4D4D" stroke-width="0.4" stroke-linecap="round" stroke-linejoin="round"/>
        <path d="M218.208 84.9062L207.65 283.91" stroke="#FF4D4D" stroke-width="0.4" stroke-linecap="round" stroke-linejoin="round"/>
        <path d="M81.4849 129.879L207.65 283.91" stroke="#FF4D4D" stroke-width="0.4" stroke-linecap="round" stroke-linejoin="round"/>
        <path d="M227.463 87.1113L207.65 283.91" stroke="#FF4D4D" stroke-width="0.4" stroke-linecap="round" stroke-linejoin="round"/>
        <path d="M75.6042 137.03L207.65 283.91" stroke="#FF4D4D" stroke-width="0.4" stroke-linecap="round" stroke-linejoin="round"/>
        <path d="M234.68 90.4194L207.65 283.91" stroke="#FF4D4D" stroke-width="0.4" stroke-linecap="round" stroke-linejoin="round"/>
        <path d="M72.0292 143.879L207.65 283.91" stroke="#FF4D4D" stroke-width="0.4" stroke-linecap="round" stroke-linejoin="round"/>
        <path d="M239.625 94.7964L207.65 283.91" stroke="#FF4D4D" stroke-width="0.4" stroke-linecap="round" stroke-linejoin="round"/>
        <path d="M70.9266 150.261L207.65 283.91" stroke="#FF4D4D" stroke-width="0.4" stroke-linecap="round" stroke-linejoin="round"/>
        <path d="M242.232 100.076L207.65 283.91" stroke="#FF4D4D" stroke-width="0.4" stroke-linecap="round" stroke-linejoin="round"/>
        <path d="M72.2964 155.941L207.65 283.91" stroke="#FF4D4D" stroke-width="0.4" stroke-linecap="round" stroke-linejoin="round"/>
        <path d="M242.332 106.123L207.65 283.91" stroke="#FF4D4D" stroke-width="0.4" stroke-linecap="round" stroke-linejoin="round"/>
        <path d="M76.072 160.786L207.65 283.91" stroke="#FF4D4D" stroke-width="0.4" stroke-linecap="round" stroke-linejoin="round"/>
        <path d="M40.822 47.418L56.4256 95.6654" stroke="#FF4D4D" stroke-width="0.4" stroke-linecap="round" stroke-linejoin="round"/>
        <path d="M24.1159 5.51855L39.7195 53.766" stroke="#FF4D4D" stroke-width="0.4" stroke-linecap="round" stroke-linejoin="round"/>
        <path d="M151.35 40.0337L166.954 88.2477" stroke="#FF4D4D" stroke-width="0.4" stroke-linecap="round" stroke-linejoin="round"/>
        <path d="M77.2749 -42.3613L92.8785 5.85265" stroke="#FF4D4D" stroke-width="0.4" stroke-linecap="round" stroke-linejoin="round"/>
        <path d="M64.3109 -36.0796L79.9145 12.1678" stroke="#FF4D4D" stroke-width="0.4" stroke-linecap="round" stroke-linejoin="round"/>
        <path d="M34.6408 -14.8628L50.2778 33.3846" stroke="#FF4D4D" stroke-width="0.4" stroke-linecap="round" stroke-linejoin="round"/>
        <path d="M187.001 -11.5884L202.605 36.659" stroke="#FF4D4D" stroke-width="0.4" stroke-linecap="round" stroke-linejoin="round"/>
        <path d="M191.612 35.6899L207.215 83.9039" stroke="#FF4D4D" stroke-width="0.4" stroke-linecap="round" stroke-linejoin="round"/>
        <path d="M9.84882 -37.0151L25.4524 11.2323" stroke="#FF4D4D" stroke-width="0.4" stroke-linecap="round" stroke-linejoin="round"/>
        <path d="M219.043 42.1719L234.68 90.4193" stroke="#FF4D4D" stroke-width="0.4" stroke-linecap="round" stroke-linejoin="round"/>
        <path d="M91.141 -47.9746L106.745 0.272757" stroke="#FF4D4D" stroke-width="0.4" stroke-linecap="round" stroke-linejoin="round"/>
        <path d="M56.6929 107.693L72.2965 155.941" stroke="#FF4D4D" stroke-width="0.4" stroke-linecap="round" stroke-linejoin="round"/>
        <path d="M28.7602 -7.7124L44.3637 40.535" stroke="#FF4D4D" stroke-width="0.4" stroke-linecap="round" stroke-linejoin="round"/>
        <path d="M208.418 -1.69824L224.022 46.5492" stroke="#FF4D4D" stroke-width="0.4" stroke-linecap="round" stroke-linejoin="round"/>
        <path d="M83.8905 67.2314L99.5275 115.479" stroke="#FF4D4D" stroke-width="0.4" stroke-linecap="round" stroke-linejoin="round"/>
        <path d="M195.388 -44.6333L210.991 3.61407" stroke="#FF4D4D" stroke-width="0.4" stroke-linecap="round" stroke-linejoin="round"/>
        <path d="M8.51233 -42.6953L24.1159 5.51864" stroke="#FF4D4D" stroke-width="0.4" stroke-linecap="round" stroke-linejoin="round"/>
        <path d="M165.584 37.3608L181.187 85.6082" stroke="#FF4D4D" stroke-width="0.4" stroke-linecap="round" stroke-linejoin="round"/>
        <path d="M89.5372 122.596L73.9337 74.3481" stroke="#FF4D4D" stroke-width="0.4" stroke-linecap="round" stroke-linejoin="round"/>
        <path d="M44.3638 40.5347L60.0007 88.782" stroke="#FF4D4D" stroke-width="0.4" stroke-linecap="round" stroke-linejoin="round"/>
        <path d="M55.323 102.014L70.9266 150.261" stroke="#FF4D4D" stroke-width="0.4" stroke-linecap="round" stroke-linejoin="round"/>
        <path d="M202.604 36.6592L218.208 84.9066" stroke="#FF4D4D" stroke-width="0.4" stroke-linecap="round" stroke-linejoin="round"/>
        <path d="M163.546 -12.3232L179.149 35.9242" stroke="#FF4D4D" stroke-width="0.4" stroke-linecap="round" stroke-linejoin="round"/>
        <path d="M122.348 48.5205L137.985 96.7345" stroke="#FF4D4D" stroke-width="0.4" stroke-linecap="round" stroke-linejoin="round"/>
        <path d="M95.5515 60.415L111.155 108.662" stroke="#FF4D4D" stroke-width="0.4" stroke-linecap="round" stroke-linejoin="round"/>
        <path d="M52.6835 -29.2637L68.287 18.9837" stroke="#FF4D4D" stroke-width="0.4" stroke-linecap="round" stroke-linejoin="round"/>
        <path d="M226.595 51.8281L242.232 100.076" stroke="#FF4D4D" stroke-width="0.4" stroke-linecap="round" stroke-linejoin="round"/>
        <path d="M176.008 -12.5576L191.612 35.6898" stroke="#FF4D4D" stroke-width="0.4" stroke-linecap="round" stroke-linejoin="round"/>
        <path d="M121.179 -4.47168L136.782 43.7757" stroke="#FF4D4D" stroke-width="0.4" stroke-linecap="round" stroke-linejoin="round"/>
        <path d="M106.745 0.272949L122.348 48.5203" stroke="#FF4D4D" stroke-width="0.4" stroke-linecap="round" stroke-linejoin="round"/>
        <path d="M136.782 43.7759L152.386 91.9899" stroke="#FF4D4D" stroke-width="0.4" stroke-linecap="round" stroke-linejoin="round"/>
        <path d="M50.2778 33.3848L65.8813 81.6321" stroke="#FF4D4D" stroke-width="0.4" stroke-linecap="round" stroke-linejoin="round"/>
        <path d="M65.8813 81.6318L81.4848 129.879" stroke="#FF4D4D" stroke-width="0.4" stroke-linecap="round" stroke-linejoin="round"/>
        <path d="M60.0007 88.7822L75.6043 137.03" stroke="#FF4D4D" stroke-width="0.4" stroke-linecap="round" stroke-linejoin="round"/>
        <path d="M25.2185 -0.82959L40.8221 47.4178" stroke="#FF4D4D" stroke-width="0.4" stroke-linecap="round" stroke-linejoin="round"/>
        <path d="M224.022 46.5488L239.625 94.7962" stroke="#FF4D4D" stroke-width="0.4" stroke-linecap="round" stroke-linejoin="round"/>
        <path d="M196.256 -9.3833L211.86 38.8641" stroke="#FF4D4D" stroke-width="0.4" stroke-linecap="round" stroke-linejoin="round"/>
        <path d="M149.98 -10.8535L165.584 37.3605" stroke="#FF4D4D" stroke-width="0.4" stroke-linecap="round" stroke-linejoin="round"/>
        <path d="M92.8784 5.85303L108.482 54.1004" stroke="#FF4D4D" stroke-width="0.4" stroke-linecap="round" stroke-linejoin="round"/>
        <path d="M73.9337 74.3483L58.2967 26.1343" stroke="#FF4D4D" stroke-width="0.4" stroke-linecap="round" stroke-linejoin="round"/>
        <path d="M25.4524 11.2324L41.0894 59.4798" stroke="#FF4D4D" stroke-width="0.4" stroke-linecap="round" stroke-linejoin="round"/>
        <path d="M210.991 3.61426L226.595 51.8282" stroke="#FF4D4D" stroke-width="0.4" stroke-linecap="round" stroke-linejoin="round"/>
        <path d="M211.86 38.8643L227.463 87.1116" stroke="#FF4D4D" stroke-width="0.4" stroke-linecap="round" stroke-linejoin="round"/>
        <path d="M56.4256 95.665L72.0292 143.879" stroke="#FF4D4D" stroke-width="0.4" stroke-linecap="round" stroke-linejoin="round"/>
        <path d="M203.44 -6.04199L219.043 42.172" stroke="#FF4D4D" stroke-width="0.4" stroke-linecap="round" stroke-linejoin="round"/>
        <path d="M179.149 35.9238L194.753 84.1378" stroke="#FF4D4D" stroke-width="0.4" stroke-linecap="round" stroke-linejoin="round"/>
        <path d="M108.482 54.1001L124.086 102.348" stroke="#FF4D4D" stroke-width="0.4" stroke-linecap="round" stroke-linejoin="round"/>
        <path d="M58.2967 26.1341L42.6932 -22.1133" stroke="#FF4D4D" stroke-width="0.4" stroke-linecap="round" stroke-linejoin="round"/>
        <path d="M68.287 18.9839L83.8905 67.2313" stroke="#FF4D4D" stroke-width="0.4" stroke-linecap="round" stroke-linejoin="round"/>
        <path d="M39.7195 53.7661L55.323 102.014" stroke="#FF4D4D" stroke-width="0.4" stroke-linecap="round" stroke-linejoin="round"/>
        <path d="M135.713 -8.21387L151.35 40.0335" stroke="#FF4D4D" stroke-width="0.4" stroke-linecap="round" stroke-linejoin="round"/>
        <path d="M79.9145 12.1675L95.5515 60.4149" stroke="#FF4D4D" stroke-width="0.4" stroke-linecap="round" stroke-linejoin="round"/>
        <path d="M41.0894 59.4795L56.6929 107.693" stroke="#FF4D4D" stroke-width="0.4" stroke-linecap="round" stroke-linejoin="round"/>
        <path d="M106.745 0.272863L121.179 -4.47168" stroke="#FF4D4D" stroke-width="0.4" stroke-linecap="round" stroke-linejoin="round"/>
        <path d="M122.348 48.5204L136.782 43.7759" stroke="#FF4D4D" stroke-width="0.4" stroke-linecap="round" stroke-linejoin="round"/>
        <path d="M137.985 96.7343L152.386 91.9897" stroke="#FF4D4D" stroke-width="0.4" stroke-linecap="round" stroke-linejoin="round"/>
        <path d="M152.386 91.9897L166.954 88.2476" stroke="#FF4D4D" stroke-width="0.4" stroke-linecap="round" stroke-linejoin="round"/>
        <path d="M136.782 43.7759L151.35 40.0337" stroke="#FF4D4D" stroke-width="0.4" stroke-linecap="round" stroke-linejoin="round"/>
        <path d="M92.8784 5.85283L106.745 0.272949" stroke="#FF4D4D" stroke-width="0.4" stroke-linecap="round" stroke-linejoin="round"/>
        <path d="M124.086 102.348L137.985 96.7344" stroke="#FF4D4D" stroke-width="0.4" stroke-linecap="round" stroke-linejoin="round"/>
        <path d="M108.482 54.1004L122.348 48.5205" stroke="#FF4D4D" stroke-width="0.4" stroke-linecap="round" stroke-linejoin="round"/>
        <path d="M151.35 40.0338L165.584 37.3608" stroke="#FF4D4D" stroke-width="0.4" stroke-linecap="round" stroke-linejoin="round"/>
        <path d="M166.954 88.2475L181.187 85.6079" stroke="#FF4D4D" stroke-width="0.4" stroke-linecap="round" stroke-linejoin="round"/>
        <path d="M95.5515 60.415L108.482 54.1001" stroke="#FF4D4D" stroke-width="0.4" stroke-linecap="round" stroke-linejoin="round"/>
        <path d="M79.9145 12.168L92.8785 5.85303" stroke="#FF4D4D" stroke-width="0.4" stroke-linecap="round" stroke-linejoin="round"/>
        <path d="M111.155 108.663L124.086 102.348" stroke="#FF4D4D" stroke-width="0.4" stroke-linecap="round" stroke-linejoin="round"/>
        <path d="M181.187 85.6078L194.753 84.1377" stroke="#FF4D4D" stroke-width="0.4" stroke-linecap="round" stroke-linejoin="round"/>
        <path d="M165.584 37.3606L179.149 35.9238" stroke="#FF4D4D" stroke-width="0.4" stroke-linecap="round" stroke-linejoin="round"/>
        <path d="M99.5275 115.479L111.155 108.663" stroke="#FF4D4D" stroke-width="0.4" stroke-linecap="round" stroke-linejoin="round"/>
        <path d="M83.8905 67.2311L95.5514 60.415" stroke="#FF4D4D" stroke-width="0.4" stroke-linecap="round" stroke-linejoin="round"/>
        <path d="M68.287 18.9836L79.9145 12.1675" stroke="#FF4D4D" stroke-width="0.4" stroke-linecap="round" stroke-linejoin="round"/>
        <path d="M179.149 35.9238L191.612 35.6899" stroke="#FF4D4D" stroke-width="0.4" stroke-linecap="round" stroke-linejoin="round"/>
        <path d="M194.753 84.1377L207.215 83.9038" stroke="#FF4D4D" stroke-width="0.4" stroke-linecap="round" stroke-linejoin="round"/>
        <path d="M89.5372 122.595L99.5275 115.479" stroke="#FF4D4D" stroke-width="0.4" stroke-linecap="round" stroke-linejoin="round"/>
        <path d="M58.2967 26.1341L68.287 18.9839" stroke="#FF4D4D" stroke-width="0.4" stroke-linecap="round" stroke-linejoin="round"/>
        <path d="M73.9337 74.3483L83.8905 67.2314" stroke="#FF4D4D" stroke-width="0.4" stroke-linecap="round" stroke-linejoin="round"/>
        <path d="M207.215 83.9038L218.208 84.9062" stroke="#FF4D4D" stroke-width="0.4" stroke-linecap="round" stroke-linejoin="round"/>
        <path d="M191.612 35.6899L202.605 36.6589" stroke="#FF4D4D" stroke-width="0.4" stroke-linecap="round" stroke-linejoin="round"/>
        <path d="M50.2778 33.3847L58.2967 26.1343" stroke="#FF4D4D" stroke-width="0.4" stroke-linecap="round" stroke-linejoin="round"/>
        <path d="M65.8813 81.632L73.9337 74.3481" stroke="#FF4D4D" stroke-width="0.4" stroke-linecap="round" stroke-linejoin="round"/>
        <path d="M81.4849 129.879L89.5372 122.595" stroke="#FF4D4D" stroke-width="0.4" stroke-linecap="round" stroke-linejoin="round"/>
        <path d="M202.604 36.6592L211.86 38.8644" stroke="#FF4D4D" stroke-width="0.4" stroke-linecap="round" stroke-linejoin="round"/>
        <path d="M218.208 84.9062L227.463 87.1114" stroke="#FF4D4D" stroke-width="0.4" stroke-linecap="round" stroke-linejoin="round"/>
        <path d="M60.0007 88.7821L65.8813 81.6318" stroke="#FF4D4D" stroke-width="0.4" stroke-linecap="round" stroke-linejoin="round"/>
        <path d="M75.6042 137.03L81.4848 129.879" stroke="#FF4D4D" stroke-width="0.4" stroke-linecap="round" stroke-linejoin="round"/>
        <path d="M44.3638 40.535L50.2777 33.3848" stroke="#FF4D4D" stroke-width="0.4" stroke-linecap="round" stroke-linejoin="round"/>
        <path d="M227.463 87.1113L234.68 90.4192" stroke="#FF4D4D" stroke-width="0.4" stroke-linecap="round" stroke-linejoin="round"/>
        <path d="M211.86 38.8643L219.043 42.1721" stroke="#FF4D4D" stroke-width="0.4" stroke-linecap="round" stroke-linejoin="round"/>
        <path d="M72.0292 143.879L75.6043 137.03" stroke="#FF4D4D" stroke-width="0.4" stroke-linecap="round" stroke-linejoin="round"/>
        <path d="M56.4256 95.6652L60.0007 88.7822" stroke="#FF4D4D" stroke-width="0.4" stroke-linecap="round" stroke-linejoin="round"/>
        <path d="M40.822 47.4176L44.3637 40.5347" stroke="#FF4D4D" stroke-width="0.4" stroke-linecap="round" stroke-linejoin="round"/>
        <path d="M219.043 42.1719L224.022 46.5489" stroke="#FF4D4D" stroke-width="0.4" stroke-linecap="round" stroke-linejoin="round"/>
        <path d="M234.68 90.4194L239.625 94.7964" stroke="#FF4D4D" stroke-width="0.4" stroke-linecap="round" stroke-linejoin="round"/>
        <path d="M39.7195 53.7663L40.8221 47.418" stroke="#FF4D4D" stroke-width="0.4" stroke-linecap="round" stroke-linejoin="round"/>
        <path d="M24.1159 5.51873L25.2185 -0.82959" stroke="#FF4D4D" stroke-width="0.4" stroke-linecap="round" stroke-linejoin="round"/>
        <path d="M70.9266 150.261L72.0292 143.879" stroke="#FF4D4D" stroke-width="0.4" stroke-linecap="round" stroke-linejoin="round"/>
        <path d="M55.323 102.013L56.4256 95.665" stroke="#FF4D4D" stroke-width="0.4" stroke-linecap="round" stroke-linejoin="round"/>
        <path d="M76.072 160.786L72.2964 155.941" stroke="#FF4D4D" stroke-width="0.4" stroke-linecap="round" stroke-linejoin="round"/>
        <path d="M242.232 100.076L242.332 106.123" stroke="#FF4D4D" stroke-width="0.4" stroke-linecap="round" stroke-linejoin="round"/>
        <path d="M208.418 -1.69824L210.991 3.6143" stroke="#FF4D4D" stroke-width="0.4" stroke-linecap="round" stroke-linejoin="round"/>
        <path d="M239.625 94.7964L242.232 100.076" stroke="#FF4D4D" stroke-width="0.4" stroke-linecap="round" stroke-linejoin="round"/>
        <path d="M224.022 46.5488L226.595 51.828" stroke="#FF4D4D" stroke-width="0.4" stroke-linecap="round" stroke-linejoin="round"/>
        <path d="M25.4524 11.2321L24.1159 5.51855" stroke="#FF4D4D" stroke-width="0.4" stroke-linecap="round" stroke-linejoin="round"/>
        <path d="M72.2965 155.941L70.9266 150.261" stroke="#FF4D4D" stroke-width="0.4" stroke-linecap="round" stroke-linejoin="round"/>
        <path d="M41.0894 59.4796L39.7195 53.7661" stroke="#FF4D4D" stroke-width="0.4" stroke-linecap="round" stroke-linejoin="round"/>
        <path d="M56.6929 107.694L55.323 102.014" stroke="#FF4D4D" stroke-width="0.4" stroke-linecap="round" stroke-linejoin="round"/>
    </g>
    <defs>
        <clipPath id="clip0_4196_6457">
            <rect width="282" height="653.578" fill="white" transform="translate(-39 -369)"/>
        </clipPath>
    </defs>
</svg>
