<svg width="32" height="32" viewBox="0 0 32 32" fill="none" xmlns="http://www.w3.org/2000/svg">
<g id="asset 2" clip-path="url(#clip0_3727_3667)">
<path id="Vector" d="M12.0752 24C11.2841 24 10.5107 23.7654 9.85292 23.3259C9.19512 22.8864 8.68243 22.2616 8.37968 21.5307C8.07693 20.7998 7.99772 19.9956 8.15206 19.2196C8.3064 18.4437 8.68736 17.731 9.24677 17.1716C9.80618 16.6122 10.5189 16.2312 11.2948 16.0769C12.0708 15.9225 12.875 16.0017 13.6059 16.3045C14.3368 16.6072 14.9616 17.1199 15.4011 17.7777C15.8406 18.4355 16.0752 19.2089 16.0752 20C16.0741 21.0605 15.6523 22.0773 14.9024 22.8272C14.1525 23.5771 13.1357 23.9989 12.0752 24ZM12.0752 18C11.6796 18 11.293 18.1173 10.9641 18.3371C10.6352 18.5568 10.3788 18.8692 10.2274 19.2346C10.0761 19.6001 10.0365 20.0022 10.1136 20.3902C10.1908 20.7781 10.3813 21.1345 10.661 21.4142C10.9407 21.6939 11.2971 21.8844 11.685 21.9616C12.073 22.0387 12.4751 21.9991 12.8406 21.8478C13.206 21.6964 13.5184 21.44 13.7381 21.1111C13.9579 20.7822 14.0752 20.3956 14.0752 20C14.0746 19.4698 13.8637 18.9614 13.4887 18.5865C13.1138 18.2115 12.6054 18.0006 12.0752 18Z" fill="#161616"/>
<path id="Vector_2" d="M30 6C29.9988 4.93948 29.5771 3.92271 28.8272 3.1728C28.0773 2.4229 27.0605 2.00111 26 2C25.3523 2.00452 24.7157 2.16826 24.1463 2.4768L7.75706 10.9579C6.3011 11.6393 5.03103 12.6619 4.05465 13.9389C3.07827 15.2159 2.42441 16.7097 2.14857 18.2934C1.87273 19.877 1.98306 21.5039 2.47018 23.0358C2.9573 24.5678 3.80684 25.9596 4.94668 27.0931C6.08653 28.2266 7.48303 29.0684 9.01766 29.547C10.5523 30.0255 12.1797 30.1268 13.7618 29.8421C15.3439 29.5575 16.834 28.8953 18.1056 27.9119C19.3772 26.9284 20.3927 25.6526 21.066 24.1929L29.556 7.7935C29.8437 7.23919 29.9959 6.62453 30 6ZM26 4C26.3955 4 26.7822 4.1173 27.1111 4.33706C27.44 4.55682 27.6963 4.86918 27.8477 5.23463C27.9991 5.60009 28.0387 6.00222 27.9615 6.39018C27.8844 6.77814 27.6939 7.13451 27.4142 7.41421C27.1345 7.69392 26.7781 7.8844 26.3901 7.96157C26.0022 8.03874 25.6 7.99913 25.2346 7.84776C24.8691 7.69638 24.5568 7.44004 24.337 7.11114C24.1173 6.78224 24 6.39556 24 6C24.0006 5.46975 24.2115 4.9614 24.5864 4.58646C24.9614 4.21152 25.4697 4.00061 26 4ZM22.0194 5.8083C22.0163 5.8732 22 5.9343 22 6C22.0011 7.06052 22.4229 8.07729 23.1728 8.8272C23.9227 9.5771 24.9394 9.99889 26 10C26.0645 10 26.1245 9.984 26.1882 9.981L21.8564 18.3427C21.5071 16.2927 20.5285 14.4023 19.0563 12.9336C17.5841 11.4649 15.6914 10.4909 13.6406 10.1465L22.0194 5.8083ZM12 28C10.4177 28 8.87099 27.5308 7.5554 26.6518C6.2398 25.7727 5.21442 24.5233 4.60892 23.0615C4.00342 21.5997 3.84499 19.9911 4.15368 18.4393C4.46236 16.8874 5.22428 15.462 6.3431 14.3431C7.46192 13.2243 8.88739 12.4624 10.4392 12.1537C11.9911 11.845 13.5996 12.0035 15.0614 12.609C16.5232 13.2145 17.7727 14.2398 18.6517 15.5554C19.5308 16.871 20 18.4177 20 20C19.9975 22.121 19.1539 24.1544 17.6541 25.6542C16.1544 27.1539 14.1209 27.9976 12 28Z" fill="#161616"/>
</g>
<defs>
<clipPath id="clip0_3727_3667">
<rect width="32" height="32" fill="white"/>
</clipPath>
</defs>
</svg>
