<svg width="32" height="32" viewBox="0 0 32 32" fill="none" xmlns="http://www.w3.org/2000/svg">
<g id="flow (1)" clip-path="url(#clip0_4278_11704)">
<path id="Vector" d="M27 22.14V17C27 16.4696 26.7893 15.9608 26.4142 15.5858C26.0392 15.2107 25.5304 15 25 15H17V9.85998C17.9427 9.61659 18.7642 9.03775 19.3106 8.23198C19.857 7.4262 20.0908 6.4488 19.9681 5.48298C19.8455 4.51717 19.3747 3.62925 18.6442 2.98566C17.9137 2.34207 16.9736 1.987 16 1.987C15.0264 1.987 14.0863 2.34207 13.3558 2.98566C12.6253 3.62925 12.1546 4.51717 12.0319 5.48298C11.9092 6.4488 12.143 7.4262 12.6894 8.23198C13.2358 9.03775 14.0574 9.61659 15 9.85998V15H7.00001C6.46958 15 5.96087 15.2107 5.5858 15.5858C5.21072 15.9608 5.00001 16.4696 5.00001 17V22.14C4.05735 22.3834 3.23582 22.9622 2.68941 23.768C2.143 24.5738 1.90922 25.5512 2.03189 26.517C2.15457 27.4828 2.62527 28.3707 3.35578 29.0143C4.08628 29.6579 5.02644 30.013 6.00001 30.013C6.97358 30.013 7.91374 29.6579 8.64424 29.0143C9.37475 28.3707 9.84545 27.4828 9.96813 26.517C10.0908 25.5512 9.85702 24.5738 9.31061 23.768C8.7642 22.9622 7.94267 22.3834 7.00001 22.14V17H25V22.14C24.0574 22.3834 23.2358 22.9622 22.6894 23.768C22.143 24.5738 21.9092 25.5512 22.0319 26.517C22.1546 27.4828 22.6253 28.3707 23.3558 29.0143C24.0863 29.6579 25.0264 30.013 26 30.013C26.9736 30.013 27.9137 29.6579 28.6442 29.0143C29.3747 28.3707 29.8455 27.4828 29.9681 26.517C30.0908 25.5512 29.857 24.5738 29.3106 23.768C28.7642 22.9622 27.9427 22.3834 27 22.14ZM8.00001 26C8.00001 26.3955 7.88271 26.7822 7.66295 27.1111C7.44319 27.44 7.13083 27.6964 6.76538 27.8477C6.39992 27.9991 5.99779 28.0387 5.60983 27.9616C5.22187 27.8844 4.8655 27.6939 4.5858 27.4142C4.30609 27.1345 4.11561 26.7781 4.03844 26.3902C3.96127 26.0022 4.00087 25.6001 4.15225 25.2346C4.30363 24.8692 4.55997 24.5568 4.88887 24.337C5.21777 24.1173 5.60445 24 6.00001 24C6.53044 24 7.03915 24.2107 7.41422 24.5858C7.7893 24.9608 8.00001 25.4695 8.00001 26ZM14 5.99998C14 5.60442 14.1173 5.21774 14.3371 4.88884C14.5568 4.55994 14.8692 4.3036 15.2346 4.15222C15.6001 4.00085 16.0022 3.96124 16.3902 4.03841C16.7782 4.11558 17.1345 4.30606 17.4142 4.58577C17.6939 4.86547 17.8844 5.22184 17.9616 5.6098C18.0388 5.99776 17.9991 6.3999 17.8478 6.76535C17.6964 7.1308 17.44 7.44316 17.1112 7.66292C16.7823 7.88268 16.3956 7.99998 16 7.99998C15.4696 7.99998 14.9609 7.78927 14.5858 7.4142C14.2107 7.03912 14 6.53042 14 5.99998ZM26 28C25.6044 28 25.2178 27.8827 24.8889 27.6629C24.56 27.4432 24.3036 27.1308 24.1523 26.7654C24.0009 26.3999 23.9613 25.9978 24.0384 25.6098C24.1156 25.2218 24.3061 24.8655 24.5858 24.5858C24.8655 24.3061 25.2219 24.1156 25.6098 24.0384C25.9978 23.9612 26.3999 24.0008 26.7654 24.1522C27.1308 24.3036 27.4432 24.5599 27.6629 24.8888C27.8827 25.2177 28 25.6044 28 26C28 26.5304 27.7893 27.0391 27.4142 27.4142C27.0392 27.7893 26.5304 28 26 28Z" fill="#161616"/>
</g>
<defs>
<clipPath id="clip0_4278_11704">
<rect width="32" height="32" fill="white"/>
</clipPath>
</defs>
</svg>
