<svg width="32" height="32" viewBox="0 0 32 32" fill="none" xmlns="http://www.w3.org/2000/svg">
<g id="asset" clip-path="url(#clip0_3727_3784)">
<path id="Vector" d="M12 24C11.2089 24 10.4355 23.7654 9.77772 23.3259C9.11993 22.8864 8.60723 22.2616 8.30448 21.5307C8.00173 20.7998 7.92252 19.9956 8.07686 19.2196C8.2312 18.4437 8.61216 17.731 9.17157 17.1716C9.73098 16.6122 10.4437 16.2312 11.2196 16.0769C11.9956 15.9225 12.7998 16.0017 13.5307 16.3045C14.2616 16.6072 14.8864 17.1199 15.3259 17.7777C15.7654 18.4355 16 19.2089 16 20C15.9989 21.0605 15.5771 22.0773 14.8272 22.8272C14.0773 23.5771 13.0605 23.9989 12 24ZM12 18C11.6044 18 11.2178 18.1173 10.8889 18.3371C10.56 18.5568 10.3036 18.8692 10.1522 19.2346C10.0009 19.6001 9.96126 20.0022 10.0384 20.3902C10.1156 20.7781 10.3061 21.1345 10.5858 21.4142C10.8655 21.6939 11.2219 21.8844 11.6098 21.9616C11.9978 22.0387 12.3999 21.9991 12.7654 21.8478C13.1308 21.6964 13.4432 21.44 13.6629 21.1111C13.8827 20.7822 14 20.3956 14 20C13.9994 19.4698 13.7885 18.9614 13.4135 18.5865C13.0386 18.2115 12.5302 18.0006 12 18Z" fill="#161616"/>
<path id="Vector_2" d="M30 6C29.9989 4.93948 29.5771 3.92271 28.8272 3.1728C28.0773 2.4229 27.0605 2.00111 26 2C25.3523 2.00452 24.7157 2.16826 24.1463 2.4768L7.75709 10.9579C6.30113 11.6393 5.03106 12.6619 4.05468 13.9389C3.0783 15.2159 2.42444 16.7097 2.1486 18.2934C1.87276 19.877 1.98309 21.5039 2.47021 23.0358C2.95733 24.5678 3.80687 25.9596 4.94671 27.0931C6.08656 28.2266 7.48306 29.0684 9.01769 29.547C10.5523 30.0255 12.1797 30.1268 13.7619 29.8421C15.344 29.5575 16.8341 28.8953 18.1056 27.9119C19.3772 26.9284 20.3927 25.6526 21.066 24.1929L29.556 7.7935C29.8437 7.23919 29.9959 6.62453 30 6ZM26 4C26.3956 4 26.7822 4.1173 27.1111 4.33706C27.44 4.55682 27.6964 4.86918 27.8477 5.23463C27.9991 5.60009 28.0387 6.00222 27.9616 6.39018C27.8844 6.77814 27.6939 7.13451 27.4142 7.41421C27.1345 7.69392 26.7781 7.8844 26.3902 7.96157C26.0022 8.03874 25.6001 7.99913 25.2346 7.84776C24.8692 7.69638 24.5568 7.44004 24.337 7.11114C24.1173 6.78224 24 6.39556 24 6C24.0006 5.46975 24.2115 4.9614 24.5864 4.58646C24.9614 4.21152 25.4697 4.00061 26 4ZM22.0194 5.8083C22.0163 5.8732 22 5.9343 22 6C22.0011 7.06052 22.4229 8.07729 23.1728 8.8272C23.9227 9.5771 24.9395 9.99889 26 10C26.0645 10 26.1245 9.984 26.1882 9.981L21.8564 18.3427C21.5071 16.2927 20.5285 14.4023 19.0564 12.9336C17.5842 11.4649 15.6914 10.4909 13.6406 10.1465L22.0194 5.8083ZM12 28C10.4177 28 8.87102 27.5308 7.55543 26.6518C6.23983 25.7727 5.21445 24.5233 4.60895 23.0615C4.00345 21.5997 3.84503 19.9911 4.15371 18.4393C4.46239 16.8874 5.22431 15.462 6.34313 14.3431C7.46196 13.2243 8.88742 12.4624 10.4393 12.1537C11.9911 11.845 13.5996 12.0035 15.0615 12.609C16.5233 13.2145 17.7727 14.2398 18.6517 15.5554C19.5308 16.871 20 18.4177 20 20C19.9976 22.121 19.1539 24.1544 17.6542 25.6542C16.1544 27.1539 14.121 27.9976 12 28Z" fill="#161616"/>
</g>
<defs>
<clipPath id="clip0_3727_3784">
<rect width="32" height="32" fill="white"/>
</clipPath>
</defs>
</svg>
