<svg width="32" height="32" viewBox="0 0 32 32" fill="none" xmlns="http://www.w3.org/2000/svg">
<g id="cube (2)" clip-path="url(#clip0_4201_11383)">
<path id="Vector" d="M28.5039 8.13624L16.5039 1.13624C16.351 1.04701 16.1771 1 16 1C15.8229 1 15.649 1.04701 15.4961 1.13624L3.4961 8.13624C3.34513 8.22431 3.21988 8.35041 3.13284 8.50197C3.04579 8.65353 2.99999 8.82526 3 9.00004V23C2.99999 23.1748 3.04579 23.3465 3.13284 23.4981C3.21988 23.6497 3.34513 23.7758 3.4961 23.8638L15.4961 30.8638C15.649 30.9531 15.8229 31.0001 16 31.0001C16.1771 31.0001 16.351 30.9531 16.5039 30.8638L28.5039 23.8638C28.6549 23.7758 28.7801 23.6497 28.8672 23.4981C28.9542 23.3465 29 23.1748 29 23V9.00004C29 8.82526 28.9542 8.65353 28.8672 8.50197C28.7801 8.35041 28.6549 8.22431 28.5039 8.13624ZM16 3.15774L26.0156 9.00004L16 14.8423L5.9844 9.00004L16 3.15774ZM5 10.7412L15 16.5742V28.2588L5 22.4258V10.7412ZM17 28.2588V16.5742L27 10.7412V22.4258L17 28.2588Z" fill="#161616"/>
</g>
<defs>
<clipPath id="clip0_4201_11383">
<rect width="32" height="32" fill="white"/>
</clipPath>
</defs>
</svg>
