<svg width="32" height="32" viewBox="0 0 32 32" fill="none" xmlns="http://www.w3.org/2000/svg">
<g id="crossroads (1)" clip-path="url(#clip0_4201_11354)">
<path id="Vector" d="M26.5859 6.5859C26.4007 6.39957 26.1803 6.25185 25.9376 6.15128C25.6949 6.0507 25.4346 5.99929 25.1719 6H17V2H15V12H6.8281C6.56537 11.9993 6.30511 12.0507 6.0624 12.1513C5.81968 12.2518 5.59933 12.3996 5.4141 12.5859L2 16L5.4141 19.4141C5.59933 19.6004 5.81968 19.7482 6.0624 19.8487C6.30511 19.9493 6.56537 20.0007 6.8281 20H15V30H17V14H25.1719C25.4346 14.0007 25.6949 13.9493 25.9376 13.8487C26.1803 13.7482 26.4007 13.6004 26.5859 13.4141L30 10L26.5859 6.5859ZM6.8281 18L4.8281 16L6.8281 14H15V18H6.8281ZM25.1719 12H17V8H25.1719L27.1719 10L25.1719 12Z" fill="#161616"/>
</g>
<defs>
<clipPath id="clip0_4201_11354">
<rect width="32" height="32" fill="white"/>
</clipPath>
</defs>
</svg>
