<svg width="32" height="32" viewBox="0 0 32 32" fill="none" xmlns="http://www.w3.org/2000/svg">
<g id="data--categorical (3)" clip-path="url(#clip0_4201_11363)">
<path id="Vector" d="M29 30H19C18.4478 30 18 29.5522 18 29V19C18 18.4478 18.4478 18 19 18H29C29.5522 18 30 18.4478 30 19V29C30 29.5522 29.5522 30 29 30ZM20 28H28V20H20V28Z" fill="#161616"/>
<path id="Vector_2" d="M8 30C4.6917 30 2 27.3083 2 24C2 20.6917 4.6917 18 8 18C11.3083 18 14 20.6917 14 24C14 27.3083 11.3083 30 8 30ZM8 20C5.7944 20 4 21.7944 4 24C4 26.2056 5.7944 28 8 28C10.2056 28 12 26.2056 12 24C12 21.7944 10.2056 20 8 20Z" fill="#161616"/>
<path id="Vector_3" d="M22 14H9.99999C9.63959 14 9.30739 13.8062 9.12989 13.4927C8.95239 13.1792 8.95699 12.7945 9.14259 12.4855L15.1446 2.4822C15.3383 2.1593 15.6692 2 16 2C16.3308 2 16.6617 2.1593 16.8554 2.4822L22.8574 12.4855C23.0429 12.7945 23.0476 13.1792 22.8701 13.4927C22.6926 13.8062 22.3603 14 22 14ZM11.7661 12H20.2339L16 4.9436L11.7661 12Z" fill="#161616"/>
</g>
<defs>
<clipPath id="clip0_4201_11363">
<rect width="32" height="32" fill="white"/>
</clipPath>
</defs>
</svg>
