<svg width="32" height="32" viewBox="0 0 32 32" fill="none" xmlns="http://www.w3.org/2000/svg">
<g id="build--image (1)" clip-path="url(#clip0_4201_11502)">
<path id="Vector" d="M30 25V23H27.9C27.8 22.4 27.5 21.8 27.2 21.2L28.7 19.7L27.3 18.3L25.8 19.8C25.3 19.5 24.7 19.2 24 19.1V17H22V19.1C21.4 19.2 20.8 19.5 20.2 19.8L18.7 18.3L17.3 19.7L18.8 21.2C18.5 21.7 18.2 22.3 18.1 23H16V25H18.1C18.2 25.6 18.5 26.2 18.8 26.8L17.3 28.3L18.7 29.7L20.2 28.2C20.7 28.5 21.3 28.8 22 28.9V31H24V28.9C24.6 28.8 25.2 28.5 25.8 28.2L27.3 29.7L28.7 28.3L27.2 26.8C27.5 26.3 27.8 25.7 27.9 25H30ZM23 27C21.3 27 20 25.7 20 24C20 22.3 21.3 21 23 21C24.7 21 26 22.3 26 24C26 25.7 24.7 27 23 27ZM21.4854 7.126L12.4858 2.126C12.1831 1.958 11.8169 1.958 11.5141 2.126L2.5142 7.126C2.1968 7.3023 2 7.6367 2 8V18C2 18.3633 2.1968 18.6982 2.5142 18.874L11.5142 23.874C11.6656 23.958 11.833 24 12 24C12.1753 24 12.3506 23.9541 12.5073 23.8623C12.8125 23.6826 13 23.3545 13 23V13.5884L20 9.6993V14H22V8C22 7.6367 21.8027 7.3022 21.4854 7.126ZM12 4.144L18.9411 8.0001L12 11.8559L5.0591 7.9999L12 4.144ZM4 17.4111V9.6994L11 13.5883V21.3007L4 17.4111Z" fill="#161616"/>
</g>
<defs>
<clipPath id="clip0_4201_11502">
<rect width="32" height="32" fill="white"/>
</clipPath>
</defs>
</svg>
