<svg width="32" height="32" viewBox="0 0 32 32" fill="none" xmlns="http://www.w3.org/2000/svg">
<g id="chart--area" clip-path="url(#clip0_4201_11489)">
<path id="Vector" d="M20.4761 8.0151L13.4473 4.2109C13.1108 4.04364 12.7341 3.97418 12.36 4.01044C11.986 4.0467 11.6296 4.18721 11.3315 4.416L4 10.001V2H2V28C2 28.5304 2.21071 29.0391 2.58579 29.4142C2.96086 29.7893 3.46957 30 4 30H30V5.7354L20.4761 8.0151ZM28 20.209L20.38 22.0112L13.3512 19.1274C13.0124 18.9992 12.645 18.9659 12.2887 19.0311C11.9324 19.0963 11.6006 19.2575 11.3292 19.4974L4 25.8359V21.3809L12.375 11.9809L19.3936 17.6009C19.6842 17.8167 20.0275 17.9502 20.3875 17.9875C20.7475 18.0248 21.1109 17.9644 21.4395 17.8128L28 14.6025V20.209ZM12.5239 5.9849L19.5539 9.7891C19.9691 9.99529 20.4427 10.0518 20.8947 9.9491L28 8.2646V12.3784L20.6187 16.02L13.6 10.4C13.2008 10.0977 12.7024 9.95705 12.2041 10.006C11.7057 10.055 11.2442 10.29 10.9115 10.6642L4 18.3838V12.5138L12.5239 5.9849ZM4.5513 28L12.62 20.9888L19.6488 23.8726C20.0153 24.0101 20.4142 24.0369 20.7958 23.9497L28 22.2612V28H4.5513Z" fill="#161616"/>
</g>
<defs>
<clipPath id="clip0_4201_11489">
<rect width="32" height="32" fill="white"/>
</clipPath>
</defs>
</svg>
