<svg width="32" height="32" viewBox="0 0 32 32" fill="none" xmlns="http://www.w3.org/2000/svg">
<g id="alyvix-icon">
<g id="Group 1073713860">
<g id="Vector">
<path fill-rule="evenodd" clip-rule="evenodd" d="M16 1.99976C8.26802 1.99976 2 8.2677 2 15.9998C2 23.7318 8.26802 29.9997 16 29.9997C23.732 29.9997 30 23.7318 30 15.9998C30 8.2677 23.732 1.99976 16 1.99976ZM8.03349 8.0333C6.66667 9.40004 6.66667 11.6 6.66667 15.9998C6.66667 20.3995 6.66667 22.5995 8.03349 23.9662C9.40034 25.3331 11.6002 25.3331 16 25.3331C20.3998 25.3331 22.5997 25.3331 23.9665 23.9662C25.3333 22.5995 25.3333 20.3995 25.3333 15.9998C25.3333 11.6 25.3333 9.40004 23.9665 8.0333C22.5997 6.66642 20.3998 6.66642 16 6.66642C11.6002 6.66642 9.40034 6.66642 8.03349 8.0333Z" fill="#161616"/>
<path d="M19.1111 12.8886C19.1111 12.5995 19.1111 12.455 19.135 12.3348C19.2332 11.8411 19.6191 11.4552 20.1128 11.357C20.233 11.3331 20.3775 11.3331 20.6667 11.3331C20.9558 11.3331 21.1003 11.3331 21.2206 11.357C21.7142 11.4552 22.1001 11.8411 22.1983 12.3348C22.2222 12.455 22.2222 12.5995 22.2222 12.8886V14.4442C22.2222 14.7333 22.2222 14.8779 22.1983 14.9981C22.1001 15.4917 21.7142 15.8776 21.2206 15.9758C21.1003 15.9998 20.9558 15.9998 20.6667 15.9998C20.3775 15.9998 20.233 15.9998 20.1128 15.9758C19.6191 15.8776 19.2332 15.4917 19.135 14.9981C19.1111 14.8779 19.1111 14.7333 19.1111 14.4442V12.8886Z" fill="#161616"/>
<path d="M13.6667 12.8886C13.6667 12.5995 13.6667 12.455 13.6906 12.3348C13.7888 11.8411 14.1747 11.4552 14.6683 11.357C14.7885 11.3331 14.9331 11.3331 15.2222 11.3331C15.5113 11.3331 15.6559 11.3331 15.7761 11.357C16.2698 11.4552 16.6557 11.8411 16.7539 12.3348C16.7778 12.455 16.7778 12.5995 16.7778 12.8886V14.4442C16.7778 14.7333 16.7778 14.8779 16.7539 14.9981C16.6557 15.4917 16.2698 15.8776 15.7761 15.9758C15.6559 15.9998 15.5113 15.9998 15.2222 15.9998C14.9331 15.9998 14.7885 15.9998 14.6683 15.9758C14.1747 15.8776 13.7888 15.4917 13.6906 14.9981C13.6667 14.8779 13.6667 14.7333 13.6667 14.4442V12.8886Z" fill="#161616"/>
</g>
</g>
</g>
</svg>
