<svg width="32" height="32" viewBox="0 0 32 32" fill="none" xmlns="http://www.w3.org/2000/svg">
<g id="activity (2)" clip-path="url(#clip0_4201_11506)">
<path id="Vector" d="M12 29C11.8026 28.999 11.6099 28.9396 11.4461 28.8293C11.2824 28.719 11.155 28.5626 11.08 28.38L6.33 17H2V15H7C7.19743 15.001 7.39014 15.0604 7.55386 15.1707C7.71758 15.2811 7.84498 15.4374 7.92 15.62L12 25.28L20.06 3.65001C20.1315 3.4586 20.2599 3.2937 20.428 3.17749C20.5961 3.06128 20.7957 2.99934 21 3.00001C21.2062 3.00361 21.4063 3.07089 21.5728 3.19262C21.7393 3.31436 21.864 3.48459 21.93 3.68001L25.72 15H30V17H25C24.7904 17.0005 24.5858 16.9352 24.4154 16.8132C24.2449 16.6911 24.1171 16.5186 24.05 16.32L21 7.00001L12.94 28.35C12.8685 28.5414 12.7401 28.7063 12.572 28.8225C12.4039 28.9387 12.2043 29.0007 12 29Z" fill="#161616"/>
</g>
<defs>
<clipPath id="clip0_4201_11506">
<rect width="32" height="32" fill="white"/>
</clipPath>
</defs>
</svg>
