<svg width="32" height="32" viewBox="0 0 32 32" fill="none" xmlns="http://www.w3.org/2000/svg">
<g id="plan (2) 1" clip-path="url(#clip0_4201_11464)">
<path id="Vector" d="M31 8C31 7.6 30.8 7.3 30.5 7.1L23.5 3.1C23.3 3 23.2 3 23 3C22.8 3 22.7 3 22.5 3.1L16 6.8L9.5 3.1C9.3 3 9.2 3 9 3C8.8 3 8.7 3 8.5 3.1L1.5 7.1C1.2 7.3 1 7.6 1 8V28C1 28.6 1.4 29 2 29C2.2 29 2.3 28.9 2.5 28.9L9 25.2L15.5 28.9C15.7 29 15.8 29 16 29C16.2 29 16.3 29 16.5 28.9L23 25.2L29.5 28.9C29.6 29 29.8 29 30 29C30.6 29 31 28.6 31 28V8ZM3 8.6L8 5.7V23.4L3 26.3V8.6ZM15 26.3L10 23.4V5.7L15 8.6V26.3ZM22 23.4L17 26.3V8.6L22 5.7V23.4ZM24 23.4V5.7L29 8.6V26.3L24 23.4Z" fill="#161616"/>
</g>
<defs>
<clipPath id="clip0_4201_11464">
<rect width="32" height="32" fill="white"/>
</clipPath>
</defs>
</svg>
