<svg width="32" height="32" viewBox="0 0 32 32" fill="none" xmlns="http://www.w3.org/2000/svg">
<g id="tornado-icon">
<rect id="Rectangle 316" x="13" y="23" width="6" height="6" stroke="#161616" stroke-width="2"/>
<rect id="Rectangle 317" x="3" y="3" width="6" height="6" rx="3" stroke="#161616" stroke-width="2"/>
<rect id="Rectangle 318" x="23" y="3" width="6" height="6" rx="3" stroke="#161616" stroke-width="2"/>
<path id="Union" fill-rule="evenodd" clip-rule="evenodd" d="M11.9999 6.99984C13.6568 6.99991 14.9998 8.34308 14.9998 9.99991L14.9995 22.9995C14.9995 22.9996 14.9996 22.9997 14.9997 22.9997H14.9997C14.9998 22.9997 14.9999 22.9998 14.9999 22.9998C14.9999 22.9999 15 23 15.0001 23H15.9999C16.5522 23 16.9999 22.5523 16.9999 22V18.6231C16.9999 17.2465 17.9368 16.0466 19.2723 15.7127L23.2126 14.7276C25.4384 14.1712 26.9999 12.1712 26.9999 9.8769C26.9999 9.39261 26.6073 9.00001 26.123 9.00001H25.8768C25.3925 9.00001 24.9999 9.39261 24.9999 9.8769C24.9999 11.2535 24.063 12.4535 22.7275 12.7873L18.7872 13.7724C17.9909 13.9715 16.9997 13.4509 16.9998 12.6301L16.9998 9.99995C16.9999 7.23857 14.7614 4.99996 12 4.99984L9.99955 4.99976C9.44727 4.99973 8.99953 5.44743 8.99951 5.99971C8.99949 6.552 9.44719 6.99973 9.99947 6.99976L11.9999 6.99984Z" fill="#161616"/>
</g>
</svg>
