<svg width="32" height="32" viewBox="0 0 32 32" fill="none" xmlns="http://www.w3.org/2000/svg">
<g id="asset" clip-path="url(#clip0_4201_11454)">
<path id="Vector" d="M12 24C11.2089 24 10.4355 23.7654 9.77772 23.3259C9.11993 22.8864 8.60723 22.2616 8.30448 21.5307C8.00173 20.7998 7.92252 19.9956 8.07686 19.2196C8.2312 18.4437 8.61216 17.731 9.17157 17.1716C9.73098 16.6122 10.4437 16.2312 11.2196 16.0769C11.9956 15.9225 12.7998 16.0017 13.5307 16.3045C14.2616 16.6072 14.8864 17.1199 15.3259 17.7777C15.7654 18.4355 16 19.2089 16 20C15.9989 21.0605 15.5771 22.0773 14.8272 22.8272C14.0773 23.5771 13.0605 23.9989 12 24ZM12 18C11.6044 18 11.2178 18.1173 10.8889 18.3371C10.56 18.5568 10.3036 18.8692 10.1522 19.2346C10.0009 19.6001 9.96126 20.0022 10.0384 20.3902C10.1156 20.7781 10.3061 21.1345 10.5858 21.4142C10.8655 21.6939 11.2219 21.8844 11.6098 21.9616C11.9978 22.0387 12.3999 21.9991 12.7654 21.8478C13.1308 21.6964 13.4432 21.44 13.6629 21.1111C13.8827 20.7822 14 20.3956 14 20C13.9994 19.4698 13.7885 18.9614 13.4135 18.5865C13.0386 18.2115 12.5302 18.0006 12 18Z" fill="#161616"/>
<path id="Vector_2" d="M30.0001 6C29.999 4.93948 29.5772 3.92271 28.8273 3.1728C28.0774 2.4229 27.0606 2.00111 26.0001 2C25.3524 2.00452 24.7158 2.16826 24.1464 2.4768L7.75718 10.9579C6.30122 11.6393 5.03115 12.6619 4.05477 13.9389C3.07839 15.2159 2.42453 16.7097 2.14869 18.2934C1.87285 19.877 1.98318 21.5039 2.4703 23.0358C2.95742 24.5678 3.80696 25.9596 4.94681 27.0931C6.08665 28.2266 7.48316 29.0684 9.01778 29.547C10.5524 30.0255 12.1798 30.1268 13.762 29.8421C15.3441 29.5575 16.8341 28.8953 18.1057 27.9119C19.3773 26.9284 20.3928 25.6526 21.0661 24.1929L29.5561 7.7935C29.8438 7.23919 29.996 6.62453 30.0001 6ZM26.0001 4C26.3956 4 26.7823 4.1173 27.1112 4.33706C27.4401 4.55682 27.6965 4.86918 27.8478 5.23463C27.9992 5.60009 28.0388 6.00222 27.9617 6.39018C27.8845 6.77814 27.694 7.13451 27.4143 7.41421C27.1346 7.69392 26.7782 7.8844 26.3903 7.96157C26.0023 8.03874 25.6002 7.99913 25.2347 7.84776C24.8693 7.69638 24.5569 7.44004 24.3371 7.11114C24.1174 6.78224 24.0001 6.39556 24.0001 6C24.0007 5.46975 24.2116 4.9614 24.5865 4.58646C24.9615 4.21152 25.4698 4.00061 26.0001 4ZM22.0195 5.8083C22.0164 5.8732 22.0001 5.9343 22.0001 6C22.0012 7.06052 22.423 8.07729 23.1729 8.8272C23.9228 9.5771 24.9396 9.99889 26.0001 10C26.0646 10 26.1246 9.984 26.1883 9.981L21.8565 18.3427C21.5072 16.2927 20.5286 14.4023 19.0564 12.9336C17.5843 11.4649 15.6915 10.4909 13.6407 10.1465L22.0195 5.8083ZM12.0001 28C10.4178 28 8.87111 27.5308 7.55552 26.6518C6.23993 25.7727 5.21455 24.5233 4.60904 23.0615C4.00354 21.5997 3.84512 19.9911 4.1538 18.4393C4.46248 16.8874 5.22441 15.462 6.34323 14.3431C7.46205 13.2243 8.88751 12.4624 10.4394 12.1537C11.9912 11.845 13.5997 12.0035 15.0615 12.609C16.5234 13.2145 17.7728 14.2398 18.6518 15.5554C19.5309 16.871 20.0001 18.4177 20.0001 20C19.9976 22.121 19.154 24.1544 17.6542 25.6542C16.1545 27.1539 14.1211 27.9976 12.0001 28Z" fill="#161616"/>
</g>
<defs>
<clipPath id="clip0_4201_11454">
<rect width="32" height="32" fill="white"/>
</clipPath>
</defs>
</svg>
