<svg width="32" height="32" viewBox="0 0 32 32" fill="none" xmlns="http://www.w3.org/2000/svg">
<g id="binoculars (1)" clip-path="url(#clip0_3727_3736)">
<path id="Vector" d="M28 8V5C28 4.73478 27.8946 4.48043 27.7071 4.29289C27.5196 4.10536 27.2652 4 27 4H21C20.7348 4 20.4804 4.10536 20.2929 4.29289C20.1054 4.48043 20 4.73478 20 5V8C19.4696 8 18.9609 8.21071 18.5858 8.58579C18.2107 8.96086 18 9.46957 18 10V12H14V10C14 9.46957 13.7893 8.96086 13.4142 8.58579C13.0391 8.21071 12.5304 8 12 8V5C12 4.73478 11.8946 4.48043 11.7071 4.29289C11.5196 4.10536 11.2652 4 11 4H5C4.73478 4 4.48043 4.10536 4.29289 4.29289C4.10536 4.48043 4 4.73478 4 5V8C3.46957 8 2.96086 8.21071 2.58579 8.58579C2.21071 8.96086 2 9.46957 2 10V22C2.00211 22.349 2.09552 22.6914 2.27095 22.9932C2.44638 23.2949 2.69772 23.5455 3 23.72V27C3 27.2652 3.10536 27.5196 3.29289 27.7071C3.48043 27.8946 3.73478 28 4 28H12C12.2652 28 12.5196 27.8946 12.7071 27.7071C12.8946 27.5196 13 27.2652 13 27V23.72C13.3023 23.5455 13.5536 23.2949 13.7291 22.9932C13.9045 22.6914 13.9979 22.349 14 22V20H18V22C18.0021 22.349 18.0955 22.6914 18.2709 22.9932C18.4464 23.2949 18.6977 23.5455 19 23.72V27C19 27.2652 19.1054 27.5196 19.2929 27.7071C19.4804 27.8946 19.7348 28 20 28H28C28.2652 28 28.5196 27.8946 28.7071 27.7071C28.8946 27.5196 29 27.2652 29 27V23.72C29.3023 23.5455 29.5536 23.2949 29.7291 22.9932C29.9045 22.6914 29.9979 22.349 30 22V10C30 9.46957 29.7893 8.96086 29.4142 8.58579C29.0391 8.21071 28.5304 8 28 8ZM11 26H5V24H11V26ZM12 22H4V10H6V6H10V10H12V22ZM14 18V14H18V18H14ZM27 26H21V24H27V26ZM28 22H20V10H22V6H26V10H28V22Z" fill="#161616"/>
</g>
<defs>
<clipPath id="clip0_3727_3736">
<rect width="32" height="32" fill="white"/>
</clipPath>
</defs>
</svg>
