<svg width="32" height="32" viewBox="0 0 32 32" fill="none" xmlns="http://www.w3.org/2000/svg">
<g id="link (6) 1" clip-path="url(#clip0_4201_11378)">
<path id="Vector" d="M29.2501 6.76009C28.6927 6.20073 28.0303 5.75691 27.301 5.45408C26.5717 5.15125 25.7898 4.99536 25.0001 4.99536C24.2104 4.99536 23.4285 5.15125 22.6992 5.45408C21.9699 5.75691 21.3075 6.20073 20.7501 6.76009L22.1701 8.18009C22.5424 7.8078 22.9844 7.51247 23.4708 7.31099C23.9572 7.1095 24.4786 7.0058 25.0051 7.0058C25.5316 7.0058 26.0529 7.1095 26.5394 7.31099C27.0258 7.51247 27.4678 7.8078 27.8401 8.18009C28.2124 8.55239 28.5077 8.99437 28.7092 9.4808C28.9107 9.96723 29.0144 10.4886 29.0144 11.0151C29.0144 11.5416 28.9107 12.063 28.7092 12.5494C28.5077 13.0358 28.2124 13.4778 27.8401 13.8501L19.8401 21.8501C19.0895 22.602 18.071 23.0249 17.0086 23.0259C15.9462 23.0268 14.927 22.6057 14.1751 21.8551C13.4232 21.1045 13.0003 20.086 12.9993 19.0236C12.9984 17.9612 13.4195 16.942 14.1701 16.1901L15.5801 14.7701L14.1701 13.3501L12.7501 14.7701C12.1907 15.3275 11.7469 15.9899 11.4441 16.7192C11.1412 17.4485 10.9854 18.2304 10.9854 19.0201C10.9854 19.8098 11.1412 20.5917 11.4441 21.321C11.7469 22.0503 12.1907 22.7127 12.7501 23.2701C13.8816 24.3871 15.4102 25.0093 17.0001 25.0001C17.7928 25.0034 18.5783 24.8495 19.3112 24.5474C20.0441 24.2453 20.7099 23.801 21.2701 23.2401L29.2701 15.2401C30.391 14.1124 31.0186 12.586 31.0148 10.996C31.0111 9.40595 30.3763 7.88244 29.2501 6.76009Z" fill="#161616"/>
<path id="Vector_2" d="M4.18997 24.8201C3.81656 24.4484 3.52026 24.0066 3.31807 23.5201C3.11589 23.0336 3.01181 22.5119 3.01181 21.9851C3.01181 21.4582 3.11589 20.9365 3.31807 20.45C3.52026 19.9635 3.81656 19.5217 4.18997 19.1501L12.19 11.1501C12.5616 10.7767 13.0034 10.4804 13.4899 10.2782C13.9765 10.076 14.4981 9.97191 15.025 9.97191C15.5518 9.97191 16.0735 10.076 16.56 10.2782C17.0465 10.4804 17.4883 10.7767 17.86 11.1501C18.231 11.5247 18.5231 11.9699 18.7189 12.4595C18.9147 12.949 19.0103 13.4729 19 14.0001C19.003 14.5289 18.9012 15.053 18.7004 15.5422C18.4995 16.0314 18.2037 16.4759 17.83 16.8501L15.71 19.0001L17.13 20.4201L19.25 18.3001C20.3785 17.1716 21.0124 15.641 21.0124 14.0451C21.0124 12.4491 20.3785 10.9186 19.25 9.79007C18.1215 8.66157 16.5909 8.02759 14.995 8.02759C13.399 8.02759 11.8685 8.66157 10.74 9.79007L2.73997 17.7901C2.17911 18.3477 1.73401 19.0106 1.43029 19.7409C1.12657 20.4711 0.970215 21.2542 0.970215 22.0451C0.970215 22.8359 1.12657 23.619 1.43029 24.3493C1.73401 25.0795 2.17911 25.7425 2.73997 26.3001C3.87879 27.4085 5.41087 28.0199 6.99997 28.0001C8.60307 28.0016 10.1417 27.3689 11.28 26.2401L9.85997 24.8201C9.4883 25.1935 9.04652 25.4898 8.56 25.692C8.07349 25.8941 7.55182 25.9982 7.02497 25.9982C6.49812 25.9982 5.97645 25.8941 5.48994 25.692C5.00342 25.4898 4.56164 25.1935 4.18997 24.8201Z" fill="#161616"/>
</g>
<defs>
<clipPath id="clip0_4201_11378">
<rect width="32" height="32" fill="white"/>
</clipPath>
</defs>
</svg>
