<svg width="32" height="32" viewBox="0 0 32 32" fill="none" xmlns="http://www.w3.org/2000/svg">
<g id="upgrade (1)" clip-path="url(#clip0_4278_11654)">
<path id="Vector" d="M21 24H11C10.4696 24 9.96086 24.2107 9.58579 24.5858C9.21071 24.9609 9 25.4696 9 26V28C9 28.5304 9.21071 29.0391 9.58579 29.4142C9.96086 29.7893 10.4696 30 11 30H21C21.5304 30 22.0391 29.7893 22.4142 29.4142C22.7893 29.0391 23 28.5304 23 28V26C23 25.4696 22.7893 24.9609 22.4142 24.5858C22.0391 24.2107 21.5304 24 21 24ZM21 28H11V26H21V28Z" fill="#161616"/>
<path id="Vector_2" d="M28.707 14.293L16.707 2.29297C16.6142 2.20008 16.5039 2.12638 16.3826 2.0761C16.2613 2.02582 16.1313 1.99994 16 1.99994C15.8687 1.99994 15.7386 2.02582 15.6173 2.0761C15.496 2.12638 15.3858 2.20008 15.293 2.29297L3.29297 14.293C3.15316 14.4328 3.05795 14.611 3.01939 14.8049C2.98082 14.9989 3.00062 15.1999 3.07629 15.3826C3.15196 15.5653 3.2801 15.7215 3.44451 15.8314C3.60892 15.9413 3.80222 15.9999 3.99997 16H8.99997V20C9.00058 20.5302 9.21149 21.0386 9.58643 21.4135C9.96137 21.7885 10.4697 21.9994 11 22H21C21.5302 21.9993 22.0385 21.7883 22.4134 21.4134C22.7883 21.0385 22.9993 20.5302 23 20V16H28C28.1977 15.9999 28.391 15.9413 28.5554 15.8314C28.7198 15.7215 28.848 15.5653 28.9236 15.3826C28.9993 15.1999 29.0191 14.9989 28.9806 14.8049C28.942 14.611 28.8468 14.4328 28.707 14.293ZM21 14V20H11V14H6.41407L16 4.41407L25.5859 14H21Z" fill="#161616"/>
</g>
<defs>
<clipPath id="clip0_4278_11654">
<rect width="32" height="32" fill="white"/>
</clipPath>
</defs>
</svg>
