<svg width="32" height="32" viewBox="0 0 32 32" fill="none" xmlns="http://www.w3.org/2000/svg">
<g id="nep-black" clip-path="url(#clip0_4281_11724)">
<path id="Vector" d="M28.4473 16.1055L23 13.3818V7.00002C23 6.81431 22.9483 6.63225 22.8507 6.47426C22.7531 6.31628 22.6134 6.18859 22.4473 6.10552L16.4473 3.10552C16.3084 3.03613 16.1553 3 16 3C15.8447 3 15.6916 3.03613 15.5527 3.10552L9.5527 6.10552C9.3866 6.18859 9.24691 6.31628 9.14929 6.47426C9.05167 6.63225 8.99998 6.81431 9 7.00002V13.3818L3.5527 16.1055C3.3866 16.1886 3.24691 16.3163 3.14929 16.4743C3.05167 16.6323 2.99998 16.8143 3 17V24C2.99998 24.1857 3.05167 24.3678 3.14929 24.5258C3.24691 24.6838 3.3866 24.8115 3.5527 24.8945L9.5527 27.8945C9.6916 27.9639 9.84474 28 10 28C10.1553 28 10.3084 27.9639 10.4473 27.8945L16 25.1182L21.5527 27.8945C21.6916 27.9639 21.8447 28 22 28C22.1553 28 22.3084 27.9639 22.4473 27.8945L28.4473 24.8945C28.6134 24.8115 28.7531 24.6838 28.8507 24.5258C28.9483 24.3678 29 24.1857 29 24V17C29 16.8143 28.9483 16.6323 28.8507 16.4743C28.7531 16.3163 28.6134 16.1886 28.4473 16.1055ZM21 13.3818L17 15.3818V10.6182L21 8.61822V13.3818ZM16 5.11822L19.7637 7.00002L16 8.88182L12.2363 7.00002L16 5.11822ZM11 8.61822L15 10.6182V15.3818L11 13.3818V8.61822ZM9 25.3818L5 23.3818V18.6182L9 20.6182V25.3818ZM10 18.8818L6.2363 17L10 15.1182L13.7637 17L10 18.8818ZM11 20.6182L15 18.6182V23.3818L11 25.3818V20.6182ZM21 25.3818L17 23.3818V18.6182L21 20.6182V25.3818ZM22 18.8818L18.2363 17L22 15.1182L25.7637 17L22 18.8818ZM27 23.3818L23 25.3818V20.6182L27 18.6182V23.3818Z" fill="#161616"/>
</g>
<defs>
<clipPath id="clip0_4281_11724">
<rect width="32" height="32" fill="white"/>
</clipPath>
</defs>
</svg>
