<svg width="32" height="32" viewBox="0 0 32 32" fill="none" xmlns="http://www.w3.org/2000/svg">
<g clip-path="url(#clip0_1242_2)">
<path d="M16 0.000488281L4 5.97839V20.0443C4 23.2269 5.26428 26.2791 7.51472 28.5296C9.76516 30.78 12.8174 32.0443 16 32.0443C19.1826 32.0443 22.2348 30.78 24.4853 28.5296C26.7357 26.2791 28 23.2269 28 20.0443V5.97839L16 0.000488281ZM22.83 27.3143L21.0361 28.6488C19.5189 29.5323 17.796 30.0009 16.0403 30.0076C14.2847 30.0143 12.5582 29.5587 11.0344 28.6867C9.51058 27.8147 8.24313 26.557 7.35942 25.0399C6.47571 23.5229 6.00687 21.7999 6 20.0443V7.20999L16 2.22839L26 7.20999V10.96V13.1878V16.9378V19.1656V20.0443C26.0005 20.9527 25.876 21.8569 25.63 22.7314L24.8952 24.5932C24.3675 25.6117 23.669 26.5321 22.83 27.3143Z" fill="#161616"/>
<path d="M22 10H17V12H22V14H18C17.4696 14 16.9609 14.2107 16.5858 14.5858C16.2107 14.9609 16 15.4696 16 16V18C16 18.5304 16.2107 19.0391 16.5858 19.4142C16.9609 19.7893 17.4696 20 18 20H24V12C24 11.4696 23.7893 10.9609 23.4142 10.5858C23.0391 10.2107 22.5304 10 22 10ZM22 18H18V16H22V18Z" fill="#161616"/>
<path d="M13 20H8V18H13V16H10C9.46957 16 8.96086 15.7893 8.58579 15.4142C8.21071 15.0391 8 14.5304 8 14V12C8 11.4696 8.21071 10.9609 8.58579 10.5858C8.96086 10.2107 9.46957 10 10 10H15V12H10V14H13C13.5304 14 14.0391 14.2107 14.4142 14.5858C14.7893 14.9609 15 15.4696 15 16V18C15 18.5304 14.7893 19.0391 14.4142 19.4142C14.0391 19.7893 13.5304 20 13 20Z" fill="#161616"/>
</g>
<defs>
<clipPath id="clip0_1242_2">
<rect width="32" height="32" fill="white"/>
</clipPath>
</defs>
</svg>
