<svg width="32" height="32" viewBox="0 0 32 32" fill="none" xmlns="http://www.w3.org/2000/svg">
<g id="debug (1)" clip-path="url(#clip0_4201_11369)">
<path id="Vector" d="M29.8298 20L30.1698 18L24.9998 17.15V13C24.9998 12.92 24.9998 12.85 24.9998 12.77L30.0598 11.41L29.5498 9.48L24.7198 10.77C24.391 9.52687 23.7995 8.36865 22.9853 7.37334C22.1711 6.37803 21.1531 5.56875 19.9998 5V2H17.9998V4.23C16.6841 3.92331 15.3155 3.92331 13.9998 4.23V2H11.9998V5C10.843 5.57521 9.82364 6.39272 9.01092 7.39698C8.19819 8.40123 7.6112 9.56869 7.28984 10.82L2.45984 9.48L1.99984 11.41L6.99984 12.77C6.99984 12.85 6.99984 12.92 6.99984 13V17.15L1.83984 18L2.15984 20L6.99984 19.18C7.02269 20.414 7.30193 21.6297 7.81984 22.75L3.28984 27.29L4.70984 28.71L8.89984 24.51C9.74139 25.5903 10.8184 26.4643 12.0487 27.0655C13.2791 27.6667 14.6304 27.9792 15.9998 27.9792C17.3692 27.9792 18.7206 27.6667 19.951 27.0655C21.1813 26.4643 22.2583 25.5903 23.0998 24.51L27.2898 28.71L28.7098 27.29L24.1698 22.75C24.6912 21.6305 24.9739 20.4147 24.9998 19.18L29.8298 20ZM14.9998 25.92C13.3352 25.6797 11.8128 24.8482 10.711 23.5775C9.60925 22.3068 9.00181 20.6818 8.99984 19V13H14.9998V25.92ZM9.28984 11C9.71955 9.55396 10.6049 8.28543 11.814 7.38336C13.0231 6.4813 14.4913 5.99397 15.9998 5.99397C17.5084 5.99397 18.9766 6.4813 20.1857 7.38336C21.3948 8.28543 22.2801 9.55396 22.7098 11H9.28984ZM22.9998 19C22.9979 20.6818 22.3904 22.3068 21.2887 23.5775C20.1869 24.8482 18.6644 25.6797 16.9998 25.92V13H22.9998V19Z" fill="#161616"/>
</g>
<defs>
<clipPath id="clip0_4201_11369">
<rect width="32" height="32" fill="white"/>
</clipPath>
</defs>
</svg>
