<svg width="32" height="32" viewBox="0 0 32 32" fill="none" xmlns="http://www.w3.org/2000/svg">
    <mask id="path-1-inside-1" fill="white">
        <path fill-rule="evenodd" clip-rule="evenodd" d="M16.7466 2.01957C16.5305 2.26542 16.355 2.54631 16.2284 2.85195C16.0013 3.40013 15.9419 4.00333 16.0576 4.58527C16.1734 5.16721 16.4591 5.70176 16.8787 6.12132C17.2982 6.54088 17.8328 6.8266 18.4147 6.94235C18.5448 6.96824 18.676 6.98536 18.8074 6.99381C18.6755 7.22167 18.5582 7.4588 18.4567 7.7039C18.0026 8.80025 17.8838 10.0067 18.1153 11.1705C18.3468 12.3344 18.9182 13.4035 19.7574 14.2426C20.5965 15.0818 21.6656 15.6532 22.8295 15.8847C23.2168 15.9618 23.6089 16 24 16C24 16.2608 24.0255 16.5221 24.0769 16.7804C24.2312 17.5563 24.6122 18.269 25.1716 18.8284C25.731 19.3878 26.4437 19.7688 27.2196 19.9231C27.9862 20.0756 28.7803 20.0002 29.5041 19.7064C27.8794 25.6397 22.4489 30 16 30C8.26801 30 2 23.732 2 16C2 8.26801 8.26801 2 16 2C16.2505 2 16.4994 2.00658 16.7466 2.01957Z"/>
    </mask>
    <path d="M16.7466 2.01957L18.2489 3.33985L20.9741 0.23894L16.8515 0.0223218L16.7466 2.01957ZM16.2284 2.85195L18.0761 3.61732V3.61731L16.2284 2.85195ZM16.0576 4.58527L18.0192 4.19509V4.19509L16.0576 4.58527ZM16.8787 6.12132L18.2929 4.70711L18.2929 4.70711L16.8787 6.12132ZM18.4147 6.94235L18.0245 8.90393H18.0246L18.4147 6.94235ZM18.8074 6.99381L20.5383 7.99587L22.1541 5.20494L18.9358 4.99794L18.8074 6.99381ZM18.4567 7.7039L20.3045 8.46927V8.46926L18.4567 7.7039ZM18.1153 11.1705L20.0769 10.7804V10.7804L18.1153 11.1705ZM19.7574 14.2426L21.1716 12.8284L21.1716 12.8284L19.7574 14.2426ZM22.8295 15.8847L23.2196 13.9231L23.2196 13.9231L22.8295 15.8847ZM24 16L26 16L26 14H24V16ZM24.0769 16.7804L22.1153 17.1705V17.1705L24.0769 16.7804ZM27.2196 19.9231L27.6098 17.9616H27.6098L27.2196 19.9231ZM29.5041 19.7064L31.4331 20.2347L32.5019 16.3314L28.752 17.8532L29.5041 19.7064ZM15.2443 0.699285C14.8842 1.10902 14.5916 1.57717 14.3806 2.08658L18.0761 3.61731C18.1183 3.51544 18.1768 3.42183 18.2489 3.33985L15.2443 0.699285ZM14.3806 2.08658C14.0022 3.00021 13.9031 4.00555 14.0961 4.97545L18.0192 4.19509C17.9806 4.00111 18.0004 3.80004 18.0761 3.61732L14.3806 2.08658ZM14.0961 4.97545C14.289 5.94536 14.7652 6.83627 15.4645 7.53553L18.2929 4.70711C18.153 4.56725 18.0578 4.38907 18.0192 4.19509L14.0961 4.97545ZM15.4645 7.53553C16.1637 8.2348 17.0546 8.711 18.0245 8.90393L18.8049 4.98078C18.6109 4.9422 18.4327 4.84696 18.2929 4.70711L15.4645 7.53553ZM18.0246 8.90393C18.2414 8.94706 18.46 8.9756 18.679 8.98969L18.9358 4.99794C18.892 4.99512 18.8483 4.98942 18.8049 4.98078L18.0246 8.90393ZM17.0766 5.99175C16.9007 6.29556 16.7443 6.61175 16.609 6.93853L20.3045 8.46926C20.3722 8.30586 20.4503 8.14777 20.5383 7.99587L17.0766 5.99175ZM16.609 6.93853C16.0035 8.40034 15.845 10.0089 16.1537 11.5607L20.0769 10.7804C19.9225 10.0044 20.0017 9.20017 20.3045 8.46927L16.609 6.93853ZM16.1537 11.5607C16.4624 13.1126 17.2243 14.538 18.3431 15.6569L21.1716 12.8284C20.6122 12.269 20.2312 11.5563 20.0769 10.7804L16.1537 11.5607ZM18.3431 15.6569C19.462 16.7757 20.8874 17.5376 22.4393 17.8463L23.2196 13.9231C22.4437 13.7688 21.731 13.3878 21.1716 12.8284L18.3431 15.6569ZM22.4393 17.8463C22.9557 17.949 23.4785 18 24 18V14C23.7392 14 23.4779 13.9745 23.2196 13.9231L22.4393 17.8463ZM22 16C22 16.3911 22.0382 16.7832 22.1153 17.1705L26.0384 16.3902C26.0127 16.261 26 16.1304 26 16L22 16ZM22.1153 17.1705C22.3468 18.3344 22.9182 19.4035 23.7574 20.2426L26.5858 17.4142C26.3061 17.1345 26.1156 16.7781 26.0384 16.3902L22.1153 17.1705ZM23.7574 20.2426C24.5965 21.0818 25.6656 21.6532 26.8295 21.8847L27.6098 17.9616C27.2219 17.8844 26.8655 17.6939 26.5858 17.4142L23.7574 20.2426ZM26.8295 21.8847C27.9792 22.1134 29.1705 22.0002 30.2562 21.5596L28.752 17.8532C28.3902 18.0001 27.9931 18.0378 27.6098 17.9616L26.8295 21.8847ZM27.5751 19.1782C26.1822 24.2647 21.5248 28 16 28V32C23.373 32 29.5765 27.0147 31.4331 20.2347L27.5751 19.1782ZM16 28C9.37258 28 4 22.6274 4 16H0C0 24.8366 7.16344 32 16 32V28ZM4 16C4 9.37258 9.37258 4 16 4V0C7.16344 0 0 7.16344 0 16H4ZM16 4C16.2154 4 16.4294 4.00566 16.6416 4.01681L16.8515 0.0223218C16.5694 0.00749648 16.2855 0 16 0V4Z" fill="#F4F4F4" mask="url(#path-1-inside-1)"/>
    <path d="M8.5 16C8.20333 16 7.91332 16.088 7.66665 16.2528C7.41997 16.4176 7.22771 16.6519 7.11418 16.926C7.00065 17.2001 6.97094 17.5017 7.02882 17.7926C7.0867 18.0836 7.22956 18.3509 7.43934 18.5607C7.64912 18.7704 7.91639 18.9133 8.20736 18.9712C8.49834 19.0291 8.79994 18.9994 9.07403 18.8858C9.34811 18.7723 9.58238 18.58 9.7472 18.3334C9.91203 18.0867 10 17.7967 10 17.5C10 17.1022 9.84196 16.7206 9.56066 16.4393C9.27936 16.158 8.89783 16 8.5 16Z" fill="#F4F4F4"/>
    <path d="M18.5 21C18.2033 21 17.9133 21.088 17.6666 21.2528C17.42 21.4176 17.2277 21.6519 17.1142 21.926C17.0006 22.2001 16.9709 22.5017 17.0288 22.7926C17.0867 23.0836 17.2296 23.3509 17.4393 23.5607C17.6491 23.7704 17.9164 23.9133 18.2074 23.9712C18.4983 24.0291 18.7999 23.9994 19.074 23.8858C19.3481 23.7723 19.5824 23.58 19.7472 23.3334C19.912 23.0867 20 22.7967 20 22.5C20 22.1022 19.842 21.7206 19.5607 21.4393C19.2794 21.158 18.8978 21 18.5 21Z" fill="#F4F4F4"/>
    <path d="M29.5 8C29.2033 8 28.9133 8.08797 28.6666 8.2528C28.42 8.41762 28.2277 8.65189 28.1142 8.92597C28.0006 9.20006 27.9709 9.50166 28.0288 9.79263C28.0867 10.0836 28.2296 10.3509 28.4393 10.5607C28.6491 10.7704 28.9164 10.9133 29.2074 10.9712C29.4983 11.0291 29.7999 10.9994 30.074 10.8858C30.3481 10.7723 30.5824 10.58 30.7472 10.3334C30.912 10.0867 31 9.79667 31 9.5C31 9.10217 30.842 8.72064 30.5607 8.43934C30.2794 8.15804 29.8978 8 29.5 8Z" fill="#F4F4F4"/>
    <path d="M12 22C11.8022 22 11.6089 22.0586 11.4444 22.1685C11.28 22.2784 11.1518 22.4346 11.0761 22.6173C11.0004 22.8 10.9806 23.0011 11.0192 23.1951C11.0578 23.3891 11.153 23.5673 11.2929 23.7071C11.4327 23.847 11.6109 23.9422 11.8049 23.9808C11.9989 24.0194 12.2 23.9996 12.3827 23.9239C12.5654 23.8482 12.7216 23.72 12.8315 23.5556C12.9414 23.3911 13 23.1978 13 23C13 22.7348 12.8946 22.4804 12.7071 22.2929C12.5196 22.1054 12.2652 22 12 22Z" fill="#F4F4F4"/>
    <path d="M11 11C10.8022 11 10.6089 11.0586 10.4444 11.1685C10.28 11.2784 10.1518 11.4346 10.0761 11.6173C10.0004 11.8 9.98063 12.0011 10.0192 12.1951C10.0578 12.3891 10.153 12.5673 10.2929 12.7071C10.4327 12.847 10.6109 12.9422 10.8049 12.9808C10.9989 13.0194 11.2 12.9996 11.3827 12.9239C11.5654 12.8482 11.7216 12.72 11.8315 12.5556C11.9414 12.3911 12 12.1978 12 12C12 11.7348 11.8946 11.4804 11.7071 11.2929C11.5196 11.1054 11.2652 11 11 11Z" fill="#F4F4F4"/>
    <path d="M27 2C26.8022 2 26.6089 2.05865 26.4444 2.16853C26.28 2.27841 26.1518 2.43459 26.0761 2.61732C26.0004 2.80004 25.9806 3.00111 26.0192 3.19509C26.0578 3.38907 26.153 3.56725 26.2929 3.70711C26.4327 3.84696 26.6109 3.9422 26.8049 3.98078C26.9989 4.01937 27.2 3.99957 27.3827 3.92388C27.5654 3.84819 27.7216 3.72002 27.8315 3.55557C27.9414 3.39112 28 3.19778 28 3C28 2.73478 27.8946 2.48043 27.7071 2.29289C27.5196 2.10536 27.2652 2 27 2Z" fill="#F4F4F4"/>
    <path d="M22 2C21.8022 2 21.6089 2.05865 21.4444 2.16853C21.28 2.27841 21.1518 2.43459 21.0761 2.61732C21.0004 2.80004 20.9806 3.00111 21.0192 3.19509C21.0578 3.38907 21.153 3.56725 21.2929 3.70711C21.4327 3.84696 21.6109 3.9422 21.8049 3.98078C21.9989 4.01937 22.2 3.99957 22.3827 3.92388C22.5654 3.84819 22.7216 3.72002 22.8315 3.55557C22.9414 3.39112 23 3.19778 23 3C23 2.73478 22.8946 2.48043 22.7071 2.29289C22.5196 2.10536 22.2652 2 22 2Z" fill="#F4F4F4"/>
</svg>
