<svg width="160" height="28" viewBox="0 0 160 28" fill="none" xmlns="http://www.w3.org/2000/svg">
<path d="M67.2734 22.6059H88.5503V17.978H73.1429V14.9304H87.4215V10.9798H73.1429V7.93217H88.2116V3.47363H67.2734V22.6059ZM94.4762 27.2337C94.9841 27.2337 95.6049 27.3466 96.5644 27.3466C99.104 27.3466 100.684 26.7822 101.474 25.1455L109.037 9.1738H103.563L99.6684 18.5424L95.7743 9.1738H90.2998L96.5079 22.0979H98.3139C98.3139 23.6782 97.0159 24.0732 94.9841 24.0732H94.5326V27.2337H94.4762ZM110.166 16.3978C110.166 22.1544 113.721 22.7752 117.051 22.7752H120.832C124.501 22.7752 127.548 22.0415 127.548 18.6552V18.0909H122.808C122.808 18.881 122.695 19.6147 119.929 19.6147H118.349C116.261 19.6147 115.245 19.2196 115.245 17.8087V17.0186H127.548V14.7611C127.548 10.0768 125.347 8.94805 119.929 8.94805H116.374C112.649 8.94805 110.109 10.0768 110.109 15.1561V16.3978H110.166ZM115.245 13.971C115.245 12.3343 115.64 12.0521 118.97 12.0521C121.905 12.0521 122.695 12.3343 122.695 13.971H115.245Z" fill="white"/>
<path d="M0 22.6059H5.86947V8.66587H5.92591L16.9312 22.6059H26.0176V3.47363H20.1481V17.4136H20.0917L9.0864 3.47363H0V22.6059ZM29.1216 16.3978C29.1216 22.1544 32.6772 22.7752 36.007 22.7752H39.7883C43.4567 22.7752 46.5043 22.0415 46.5043 18.6552V18.0909H41.7636C41.7636 18.881 41.6507 19.6147 38.8853 19.6147H37.305C35.2169 19.6147 34.201 19.2196 34.201 17.8087V17.0186H46.5043V14.7611C46.5043 10.0768 44.3032 8.94805 38.8853 8.94805H35.3297C31.6049 8.94805 29.0652 10.0768 29.0652 15.1561V16.3978H29.1216ZM34.201 13.971C34.201 12.3343 34.596 12.0521 37.9258 12.0521C40.8606 12.0521 41.6507 12.3343 41.6507 13.971H34.201ZM50.6242 18.0909C50.6242 21.8157 53.3332 22.7752 56.4373 22.7752H58.469C62.5325 22.7752 64.2256 20.7999 64.2256 18.2602V16.6235H59.767V17.5265C59.767 18.7681 59.3156 19.1632 57.6789 19.1632C56.4373 19.1632 55.7036 18.9374 55.7036 17.9216V12.7293H63.6048V9.11736H55.7036V5.95687H50.6242V9.11736H48.0845V12.7858H50.6242V18.0909Z" fill="#9D9D9D"/>
<path d="M153.452 0.649802C145.381 -0.874004 132.683 -0.874 132.796 13.969H137.367C136.351 7.81734 138.947 1.49636 153.452 1.83499V0.649802Z" fill="white"/>
<path d="M139.343 22.2098C147.414 23.7336 160.112 23.7336 159.999 8.89062H155.428C156.444 15.0423 153.848 21.3633 139.343 21.0246V22.2098Z" fill="#9D9D9C"/>
<path d="M146.398 16.6218C143.52 16.6218 141.206 14.3078 141.206 11.4295C141.206 8.55124 143.52 6.2373 146.398 6.2373C149.277 6.2373 151.591 8.55124 151.591 11.4295C151.591 14.3078 149.277 16.6218 146.398 16.6218Z" fill="#9D9D9D"/>
</svg>
